<svg width="800" height="362" viewBox="0 0 800 362" fill="none" xmlns="http://www.w3.org/2000/svg">
<path d="M744.737 7H55.2632C28.6082 7 7 20.9825 7 38.2308V323.769C7 341.017 28.6082 355 55.2632 355H744.737C771.392 355 793 341.017 793 323.769V38.2308C793 20.9825 771.392 7 744.737 7Z" fill="#FEFEFE" stroke="#E0DDDD" stroke-width="13.7931"/>
<path fill-rule="evenodd" clip-rule="evenodd" d="M102.351 262.914H69.0684V114H102.351V262.914ZM185.479 114H152.908C152.908 141.404 140.634 166.557 119.235 183.012L106.331 192.932L156.329 262.92H197.438L151.432 198.52C173.241 176.229 185.479 146.239 185.479 114ZM238.572 262.873H207.14V114.029H238.572V262.873ZM333.573 159.912V166.498C325.09 160.557 314.85 157.066 303.806 157.066C274.576 157.066 250.882 181.389 250.882 211.394C250.882 241.4 274.576 265.724 303.806 265.724C314.85 265.724 325.09 262.233 333.573 256.294V262.873H363.605V159.912H333.573ZM333.474 211.394C333.474 226.025 321.29 237.887 306.263 237.887C291.235 237.887 279.052 226.025 279.052 211.394C279.052 196.764 291.235 184.906 306.263 184.906C321.29 184.906 333.474 196.764 333.474 211.394ZM650.384 166.498V159.912H680.415V262.873H650.384V256.294C641.901 262.233 631.661 265.724 620.616 265.724C591.386 265.724 567.692 241.4 567.692 211.394C567.692 181.389 591.386 157.066 620.616 157.066C631.661 157.066 641.901 160.557 650.384 166.498ZM623.074 237.887C638.103 237.887 650.284 226.025 650.284 211.394C650.284 196.764 638.103 184.906 623.074 184.906C608.045 184.906 595.863 196.764 595.863 211.394C595.863 226.025 608.045 237.887 623.074 237.887ZM693.448 245.699C693.448 235.015 701.885 226.354 712.292 226.354C722.699 226.354 731.137 235.015 731.137 245.699C731.137 256.382 722.699 265.044 712.292 265.044C701.885 265.044 693.448 256.382 693.448 245.699ZM514.329 157.142C502.333 157.142 490.981 160.966 483.391 171.513V159.917H453.49V262.873H483.758V208.767C483.758 193.109 493.986 185.443 506.3 185.443C519.499 185.443 527.086 193.535 527.086 208.553V262.873H557.081V197.397C557.081 173.437 538.522 157.142 514.329 157.142ZM410.06 159.913V173.323C416.079 165.279 427.296 159.919 439.492 159.919V189.88L439.395 189.876L439.324 189.873L439.246 189.869L439.135 189.866C427.253 189.866 410.129 198.583 410.129 214.803V262.873H379.314V159.913H410.06Z" fill="#17120F"/>
</svg>
