<svg width="676" height="275" viewBox="0 0 676 275" fill="none" xmlns="http://www.w3.org/2000/svg">
<rect x="7" width="669" height="275" rx="42" fill="white"/>
<g clip-path="url(#clip0_2026_19)">
<path fill-rule="evenodd" clip-rule="evenodd" d="M114.308 95.4243H154.488C176.061 95.4243 184.182 106.311 182.927 122.305C180.853 148.709 164.839 163.318 143.598 163.318H132.874C129.959 163.318 127.999 165.241 127.211 170.451L122.658 200.743C122.357 202.707 121.32 203.845 119.764 204H94.5193C92.1442 204 91.3041 202.191 91.9264 198.272L107.318 101.162C107.92 97.2749 110.056 95.4243 114.308 95.4243Z" fill="#009EE3"/>
<path fill-rule="evenodd" clip-rule="evenodd" d="M256.749 93.6255C270.305 93.6255 282.813 100.956 281.101 119.224C279.027 140.935 267.359 152.948 248.949 153H232.863C230.55 153 229.43 154.881 228.828 158.738L225.717 178.453C225.25 181.431 223.715 182.899 221.454 182.899H206.488C204.102 182.899 203.273 181.379 203.801 177.978L216.154 98.9602C216.766 95.0729 218.228 93.6255 220.894 93.6255H256.718H256.749ZM232.375 135.931H244.562C252.185 135.641 257.247 130.379 257.755 120.888C258.066 115.026 254.094 110.829 247.777 110.86L236.306 110.912L232.375 135.931ZM321.789 176.851C323.158 175.61 324.548 174.969 324.351 176.499L323.864 180.159C323.615 182.072 324.372 183.085 326.156 183.085H339.452C341.693 183.085 342.782 182.186 343.331 178.732L351.525 127.474C351.94 124.9 351.307 123.638 349.347 123.638H334.723C333.406 123.638 332.763 124.372 332.42 126.378L331.881 129.531C331.601 131.175 330.844 131.465 330.139 129.81C327.66 123.959 321.333 121.333 312.507 121.54C292.002 121.963 278.177 137.482 276.693 157.373C275.553 172.757 286.609 184.843 301.191 184.843C311.77 184.843 316.5 181.741 321.831 176.882L321.789 176.851ZM310.65 168.963C301.824 168.963 295.674 161.943 296.949 153.341C298.225 144.739 306.481 137.719 315.307 137.719C324.133 137.719 330.284 144.739 329.008 153.341C327.732 161.943 319.487 168.963 310.65 168.963ZM377.547 123.473H364.064C361.285 123.473 360.154 125.541 361.036 128.084L377.776 176.944L361.357 200.195C359.978 202.139 361.046 203.907 362.986 203.907H378.139C379.022 204.009 379.916 203.855 380.714 203.465C381.512 203.074 382.18 202.463 382.64 201.705L434.125 128.094C435.712 125.83 434.965 123.452 432.362 123.452H418.018C415.559 123.452 414.574 124.424 413.164 126.461L391.694 157.476L382.101 126.388C381.54 124.507 380.14 123.473 377.558 123.473H377.547Z" fill="#113984"/>
<path fill-rule="evenodd" clip-rule="evenodd" d="M492.684 93.6257C506.239 93.6257 518.748 100.956 517.036 119.224C514.962 140.935 503.294 152.948 484.884 153H468.808C466.495 153 465.375 154.882 464.774 158.738L461.662 178.453C461.195 181.431 459.66 182.899 457.399 182.899H442.433C440.048 182.899 439.218 181.379 439.747 177.978L452.12 98.9397C452.732 95.0524 454.194 93.605 456.86 93.605H492.684V93.6257ZM468.31 135.931H480.497C488.12 135.642 493.182 130.379 493.69 120.888C494.001 115.026 490.029 110.829 483.712 110.86L472.241 110.912L468.31 135.931ZM557.724 176.851C559.093 175.61 560.483 174.969 560.286 176.5L559.799 180.159C559.55 182.072 560.307 183.085 562.091 183.085H575.387C577.627 183.085 578.717 182.186 579.266 178.733L587.46 127.474C587.875 124.9 587.242 123.638 585.282 123.638H570.678C569.361 123.638 568.718 124.373 568.376 126.378L567.837 129.531C567.557 131.175 566.8 131.465 566.094 129.811C563.615 123.959 557.289 121.333 548.462 121.54C527.958 121.964 514.132 137.482 512.649 157.373C511.508 172.757 522.564 184.843 537.147 184.843C547.726 184.843 552.456 181.741 557.787 176.882L557.724 176.851ZM546.596 168.963C537.769 168.963 531.619 161.943 532.895 153.341C534.17 144.739 542.426 137.72 551.252 137.72C560.079 137.72 566.229 144.739 564.953 153.341C563.678 161.943 555.422 168.963 546.596 168.963ZM607.923 183.168H592.573C592.306 183.18 592.04 183.133 591.793 183.03C591.546 182.928 591.326 182.772 591.146 182.574C590.967 182.377 590.834 182.142 590.756 181.887C590.678 181.633 590.657 181.364 590.696 181.1L604.179 95.9519C604.308 95.3707 604.63 94.8501 605.093 94.4747C605.556 94.0993 606.133 93.8911 606.73 93.8841H622.08C622.347 93.8722 622.614 93.9192 622.86 94.0218C623.107 94.1244 623.328 94.28 623.507 94.4775C623.687 94.6751 623.82 94.9096 623.898 95.1645C623.976 95.4194 623.996 95.6882 623.958 95.9519L610.475 181.1C610.35 181.685 610.029 182.21 609.566 182.59C609.102 182.969 608.523 183.18 607.923 183.189V183.168Z" fill="#009EE3"/>
<path fill-rule="evenodd" clip-rule="evenodd" d="M89.1783 62H129.4C140.725 62 154.167 62.3618 163.149 70.2708C169.154 75.5538 172.307 83.9591 171.581 93.0157C169.113 123.628 150.744 140.78 126.101 140.78H106.271C102.89 140.78 100.66 143.013 99.7055 149.051L94.167 184.202C93.804 186.476 92.8187 187.82 91.0555 187.986H66.2362C63.4877 187.986 62.5127 185.918 63.2284 181.348L81.0676 68.6787C81.7833 64.1504 84.2828 62 89.1783 62Z" fill="#113984"/>
<path fill-rule="evenodd" clip-rule="evenodd" d="M100.285 145.484L107.307 101.162C107.919 97.275 110.055 95.4141 114.308 95.4141H154.487C161.136 95.4141 166.519 96.4479 170.729 98.3606C166.695 125.613 149.011 140.749 125.862 140.749H106.062C103.407 140.759 101.457 142.082 100.285 145.484Z" fill="#172C70"/>
</g>
<defs>
<clipPath id="clip0_2026_19">
<rect width="588" height="142" fill="white" transform="translate(63 62)"/>
</clipPath>
</defs>
</svg>
