<svg width="32" height="36" viewBox="0 0 32 36" fill="none" xmlns="http://www.w3.org/2000/svg">
<path d="M10.4421 24.6667C9.21983 24.6667 8.23095 25.6667 8.23095 26.8889C8.23095 28.1111 9.21983 29.1111 10.4421 29.1111C11.6643 29.1111 12.6643 28.1111 12.6643 26.8889C12.6643 25.6667 11.6643 24.6667 10.4421 24.6667ZM3.77539 6.88892V9.11114H5.99761L9.99761 17.5445L8.49761 20.2667C8.31983 20.5778 8.21983 20.9445 8.21983 21.3334C8.21983 22.5556 9.21983 23.5556 10.4421 23.5556H23.7754V21.3334H10.9087C10.7532 21.3334 10.6309 21.2111 10.6309 21.0556L10.6643 20.9222L11.6643 19.1111H19.9421C20.7754 19.1111 21.5087 18.6556 21.8865 17.9667L25.8643 10.7556C25.9532 10.6 25.9976 10.4111 25.9976 10.2222C25.9976 9.61114 25.4976 9.11114 24.8865 9.11114H8.45317L7.40872 6.88892H3.77539ZM21.5532 24.6667C20.3309 24.6667 19.3421 25.6667 19.3421 26.8889C19.3421 28.1111 20.3309 29.1111 21.5532 29.1111C22.7754 29.1111 23.7754 28.1111 23.7754 26.8889C23.7754 25.6667 22.7754 24.6667 21.5532 24.6667Z" fill="#ffffff"/>
</svg>
