<svg width="20" height="21" viewBox="0 0 20 21" fill="none" xmlns="http://www.w3.org/2000/svg">
<g clip-path="url(#clip0_1683_988)">
<path d="M9.46517 16.6817L9.46373 16.6804C7.29778 14.7163 5.58125 13.1571 4.39417 11.7057C3.21857 10.2685 2.66699 9.05934 2.66699 7.81283C2.66699 5.79844 4.23594 4.22949 6.25033 4.22949C7.39754 4.22949 8.51423 4.76843 9.23897 5.6195L10.0003 6.51356L10.7617 5.6195C11.4864 4.76843 12.6031 4.22949 13.7503 4.22949C15.7647 4.22949 17.3337 5.79844 17.3337 7.81283C17.3337 9.05936 16.7821 10.2685 15.6063 11.707C14.4191 13.1594 12.7028 14.7205 10.537 16.6886C10.5367 16.6889 10.5364 16.6891 10.5361 16.6894L10.0029 17.1712L9.46517 16.6817Z" fill="white" stroke="white" stroke-width="2"/>
</g>
<defs>
<clipPath id="clip0_1683_988">
<rect width="20" height="20" fill="white" transform="translate(0 0.729492)"/>
</clipPath>
</defs>
</svg>
