<svg width="34" height="34" viewBox="0 0 34 34" fill="none" xmlns="http://www.w3.org/2000/svg">
<path d="M28.9889 13.1718L28.9707 13.37L29.1017 13.5198L32.3837 17.2725L29.1017 21.0252L28.9707 21.175L28.9889 21.3732L29.4462 26.3355L24.5918 27.4381L24.3972 27.4823L24.2954 27.6541L21.754 31.9434L17.1831 29.9806L16.9994 29.9017L16.8159 29.981L12.2454 31.9571L9.70459 27.6686L9.60285 27.4969L9.40822 27.4527L4.55373 26.35L5.01107 21.3731L5.02928 21.175L4.89831 21.0252L1.61584 17.272L4.89885 13.5046L5.02923 13.355L5.01107 13.1574L4.55383 8.18154L9.40702 7.09261L9.60248 7.04875L9.70459 6.87641L12.246 2.58708L16.8169 4.54989L17 4.6285L17.1831 4.54989L21.7535 2.5873L24.2951 6.89041L24.3968 7.06259L24.5918 7.10688L29.4462 8.20953L28.9889 13.1718ZM13.8933 24.4655L14.2218 24.7948L14.5503 24.4655L25.2121 13.7747L25.5393 13.4467L25.2117 13.1191L23.059 10.9664L22.7303 10.6378L22.4023 10.9669L14.222 19.1751L11.176 16.1161L10.848 15.7866L10.5192 16.1154L8.3665 18.2681L8.03888 18.5957L8.36607 18.9237L13.8933 24.4655Z" fill="white" stroke="white" stroke-width="0.927856"/>
</svg>
