<svg width="24" height="32" viewBox="0 0 24 32" fill="none" xmlns="http://www.w3.org/2000/svg">
<path d="M21 10.6667H19.5V7.61905C19.5 3.41333 16.14 0 12 0C7.86 0 4.5 3.41333 4.5 7.61905V10.6667H3C1.35 10.6667 0 12.0381 0 13.7143V28.9524C0 30.6286 1.35 32 3 32H21C22.65 32 24 30.6286 24 28.9524V13.7143C24 12.0381 22.65 10.6667 21 10.6667ZM7.5 7.61905C7.5 5.08952 9.51 3.04762 12 3.04762C14.49 3.04762 16.5 5.08952 16.5 7.61905V10.6667H7.5V7.61905ZM21 28.9524H3V13.7143H21V28.9524ZM12 24.381C13.65 24.381 15 23.0095 15 21.3333C15 19.6571 13.65 18.2857 12 18.2857C10.35 18.2857 9 19.6571 9 21.3333C9 23.0095 10.35 24.381 12 24.381Z" fill="white"/>
</svg>
