<svg width="34" height="34" viewBox="0 0 34 34" fill="none" xmlns="http://www.w3.org/2000/svg">
<path d="M18.5621 23.3256H15.764C13.7844 23.3256 12.1621 21.6586 12.1621 19.6047C12.1621 18.9944 12.6682 18.4884 13.2784 18.4884C13.8886 18.4884 14.3947 18.9944 14.3947 19.6047C14.3947 20.4233 15.0049 21.093 15.764 21.093H18.5621C19.1426 21.093 19.604 20.5721 19.604 19.9321C19.604 19.1284 19.3807 19.0093 18.8747 18.8307L14.3947 17.2679C13.4421 16.9405 12.1621 16.241 12.1621 14.0531C12.1621 12.1927 13.6356 10.6597 15.4365 10.6597H18.2347C20.2142 10.6597 21.8365 12.3266 21.8365 14.3805C21.8365 14.9908 21.3305 15.4968 20.7202 15.4968C20.11 15.4968 19.604 14.9908 19.604 14.3805C19.604 13.562 18.9937 12.8922 18.2347 12.8922H15.4365C14.8561 12.8922 14.3947 13.4131 14.3947 14.0531C14.3947 14.8568 14.6179 14.9759 15.124 15.1545L19.604 16.7172C20.5565 17.0447 21.8365 17.7442 21.8365 19.9321C21.8365 21.8074 20.363 23.3256 18.5621 23.3256Z" fill="white"/>
<path d="M18.5621 23.3256H15.764C13.7844 23.3256 12.1621 21.6586 12.1621 19.6047C12.1621 18.9944 12.6682 18.4884 13.2784 18.4884C13.8886 18.4884 14.3947 18.9944 14.3947 19.6047C14.3947 20.4233 15.0049 21.093 15.764 21.093H18.5621C19.1426 21.093 19.604 20.5721 19.604 19.9321C19.604 19.1284 19.3807 19.0093 18.8747 18.8307L14.3947 17.2679C13.4421 16.9405 12.1621 16.241 12.1621 14.0531C12.1621 12.1927 13.6356 10.6597 15.4365 10.6597H18.2347C20.2142 10.6597 21.8365 12.3266 21.8365 14.3805C21.8365 14.9908 21.3305 15.4968 20.7202 15.4968C20.11 15.4968 19.604 14.9908 19.604 14.3805C19.604 13.562 18.9937 12.8922 18.2347 12.8922H15.4365C14.8561 12.8922 14.3947 13.4131 14.3947 14.0531C14.3947 14.8568 14.6179 14.9759 15.124 15.1545L19.604 16.7172C20.5565 17.0447 21.8365 17.7442 21.8365 19.9321C21.8365 21.8074 20.363 23.3256 18.5621 23.3256Z" stroke="white"/>
<path d="M16.9991 24.8138C16.3889 24.8138 15.8828 24.3078 15.8828 23.6976V10.3023C15.8828 9.69208 16.3889 9.18604 16.9991 9.18604C17.6093 9.18604 18.1154 9.69208 18.1154 10.3023V23.6976C18.1154 24.3078 17.6093 24.8138 16.9991 24.8138Z" fill="white"/>
<path d="M16.9991 24.8138C16.3889 24.8138 15.8828 24.3078 15.8828 23.6976V10.3023C15.8828 9.69208 16.3889 9.18604 16.9991 9.18604C17.6093 9.18604 18.1154 9.69208 18.1154 10.3023V23.6976C18.1154 24.3078 17.6093 24.8138 16.9991 24.8138Z" stroke="white"/>
<path d="M17 32.9998C8.17395 32.9998 1 25.8259 1 16.9999C1 8.1739 8.17395 1 17 1C17.6102 1 18.1163 1.50604 18.1163 2.11627C18.1163 2.7265 17.6102 3.23254 17 3.23254C9.4093 3.23254 3.23256 9.40924 3.23256 16.9999C3.23256 24.5905 9.4093 30.7672 17 30.7672C24.5907 30.7672 30.7674 24.5905 30.7674 16.9999C30.7674 16.3896 31.2735 15.8836 31.8837 15.8836C32.494 15.8836 33 16.3896 33 16.9999C33 25.8259 25.826 32.9998 17 32.9998Z" fill="white"/>
<path d="M17 32.9998C8.17395 32.9998 1 25.8259 1 16.9999C1 8.1739 8.17395 1 17 1C17.6102 1 18.1163 1.50604 18.1163 2.11627C18.1163 2.7265 17.6102 3.23254 17 3.23254C9.4093 3.23254 3.23256 9.40924 3.23256 16.9999C3.23256 24.5905 9.4093 30.7672 17 30.7672C24.5907 30.7672 30.7674 24.5905 30.7674 16.9999C30.7674 16.3896 31.2735 15.8836 31.8837 15.8836C32.494 15.8836 33 16.3896 33 16.9999C33 25.8259 25.826 32.9998 17 32.9998Z" stroke="white"/>
<path d="M30.3959 10.6743H24.4425C23.8322 10.6743 23.3262 10.1682 23.3262 9.55799V3.60455C23.3262 2.99432 23.8322 2.48828 24.4425 2.48828C25.0527 2.48828 25.5587 2.99432 25.5587 3.60455V8.44172H30.3959C31.0062 8.44172 31.5122 8.94776 31.5122 9.55799C31.5122 10.1682 31.0062 10.6743 30.3959 10.6743Z" fill="white"/>
<path d="M30.3959 10.6743H24.4425C23.8322 10.6743 23.3262 10.1682 23.3262 9.55799V3.60455C23.3262 2.99432 23.8322 2.48828 24.4425 2.48828C25.0527 2.48828 25.5587 2.99432 25.5587 3.60455V8.44172H30.3959C31.0062 8.44172 31.5122 8.94776 31.5122 9.55799C31.5122 10.1682 31.0062 10.6743 30.3959 10.6743Z" stroke="white"/>
<path d="M24.4407 10.674C24.1579 10.674 23.8751 10.5699 23.6518 10.3466C23.2202 9.91498 23.2202 9.20056 23.6518 8.76894L31.0937 1.32714C31.5253 0.895512 32.2398 0.895512 32.6714 1.32714C33.103 1.75876 33.103 2.47317 32.6714 2.9048L25.2295 10.3466C25.0063 10.5699 24.7235 10.674 24.4407 10.674Z" fill="white"/>
<path d="M24.4407 10.674C24.1579 10.674 23.8751 10.5699 23.6518 10.3466C23.2202 9.91498 23.2202 9.20056 23.6518 8.76894L31.0937 1.32714C31.5253 0.895512 32.2398 0.895512 32.6714 1.32714C33.103 1.75876 33.103 2.47317 32.6714 2.9048L25.2295 10.3466C25.0063 10.5699 24.7235 10.674 24.4407 10.674Z" stroke="white"/>
</svg>
