<svg width="20" height="21" viewBox="0 0 20 21" fill="none" xmlns="http://www.w3.org/2000/svg">
<g clip-path="url(#clip0_1683_1570)">
<path d="M9.4642 16.6817L9.46276 16.6804C7.2968 14.7163 5.58028 13.1571 4.39319 11.7057C3.21759 10.2685 2.66602 9.05934 2.66602 7.81283C2.66602 5.79844 4.23497 4.22949 6.24935 4.22949C7.39656 4.22949 8.51326 4.76843 9.238 5.6195L9.99935 6.51356L10.7607 5.6195C11.4854 4.76843 12.6021 4.22949 13.7493 4.22949C15.7637 4.22949 17.3327 5.79844 17.3327 7.81283C17.3327 9.05936 16.7811 10.2685 15.6053 11.707C14.4181 13.1594 12.7018 14.7205 10.5361 16.6886C10.5358 16.6889 10.5355 16.6891 10.5352 16.6894L10.0019 17.1712L9.4642 16.6817Z" stroke="white" stroke-width="2"/>
</g>
<defs>
<clipPath id="clip0_1683_1570">
<rect width="20" height="20" fill="white" transform="translate(0 0.729492)"/>
</clipPath>
</defs>
</svg>
