<svg width="34" height="34" viewBox="0 0 34 34" fill="none" xmlns="http://www.w3.org/2000/svg">
<path d="M2 9.45513C2 6.44117 4.65778 4 7.93917 4H21.3023V17.6378C21.3023 19.138 19.966 20.3654 18.3327 20.3654H2V16.2604" stroke="white" stroke-width="2.5" stroke-linecap="round" stroke-linejoin="round"/>
<path d="M27.2415 28.5481H25.7567C25.7567 27.0479 24.4204 25.8205 22.7871 25.8205C21.1538 25.8205 19.8175 27.0479 19.8175 28.5481H13.8783C13.8783 27.0479 12.542 25.8205 10.9088 25.8205C9.27548 25.8205 7.93917 27.0479 7.93917 28.5481H6.45438C3.98962 28.5481 2 26.7206 2 24.4567V20.3654H18.3327C19.966 20.3654 21.3023 19.1379 21.3023 17.6378V8.09131H24.0343C25.1034 8.09131 26.0833 8.6232 26.6179 9.46874L29.1569 13.5464H27.2415C26.4248 13.5464 25.7567 14.1601 25.7567 14.9102V19.0016C25.7567 19.7517 26.4248 20.3654 27.2415 20.3654H31.6959V24.4567" stroke="white" stroke-width="2.5" stroke-linecap="round" stroke-linejoin="round"/>
<path d="M10.909 31.2757C12.5491 31.2757 13.8786 30.0546 13.8786 28.5481C13.8786 27.0417 12.5491 25.8206 10.909 25.8206C9.26898 25.8206 7.93945 27.0417 7.93945 28.5481C7.93945 30.0546 9.26898 31.2757 10.909 31.2757Z" stroke="white" stroke-width="2.5" stroke-linecap="round" stroke-linejoin="round"/>
<path d="M22.7879 31.2757C24.428 31.2757 25.7575 30.0546 25.7575 28.5481C25.7575 27.0417 24.428 25.8206 22.7879 25.8206C21.1478 25.8206 19.8184 27.0417 19.8184 28.5481C19.8184 30.0546 21.1478 31.2757 22.7879 31.2757Z" stroke="white" stroke-width="2.5" stroke-linecap="round" stroke-linejoin="round"/>
<path d="M31.695 17.6377V20.3653H27.2407C26.424 20.3653 25.7559 19.7516 25.7559 19.0015V14.9102C25.7559 14.1601 26.424 13.5464 27.2407 13.5464H29.156L31.695 17.6377Z" stroke="white" stroke-width="2.5" stroke-linecap="round" stroke-linejoin="round"/>
</svg>
