<svg width="33" height="30" viewBox="0 0 33 30" fill="none" xmlns="http://www.w3.org/2000/svg">
<path d="M31.35 15.3667C31.35 6.21667 24.321 0 16.5 0C8.7615 0 1.65 6.08333 1.65 15.4667C0.66 16.0333 0 17.1 0 18.3333V21.6667C0 23.5 1.485 25 3.3 25H4.95V14.8333C4.95 8.38333 10.1145 3.16667 16.5 3.16667C22.8855 3.16667 28.05 8.38333 28.05 14.8333V26.6667H14.85V30H28.05C29.865 30 31.35 28.5 31.35 26.6667V24.6333C32.3235 24.1167 33 23.1 33 21.9V18.0667C33 16.9 32.3235 15.8833 31.35 15.3667Z" fill="white"/>
<path d="M11.5504 18.3331C12.4617 18.3331 13.2004 17.5869 13.2004 16.6664C13.2004 15.7459 12.4617 14.9998 11.5504 14.9998C10.6391 14.9998 9.90039 15.7459 9.90039 16.6664C9.90039 17.5869 10.6391 18.3331 11.5504 18.3331Z" fill="white"/>
<path d="M21.4508 18.3331C22.3621 18.3331 23.1008 17.5869 23.1008 16.6664C23.1008 15.7459 22.3621 14.9998 21.4508 14.9998C20.5395 14.9998 19.8008 15.7459 19.8008 16.6664C19.8008 17.5869 20.5395 18.3331 21.4508 18.3331Z" fill="white"/>
<path d="M26.4005 13.3833C25.6085 8.63333 21.5165 5 16.583 5C11.5835 5 6.20446 9.18333 6.63346 15.75C10.709 14.0667 13.778 10.4 14.6525 5.93333C16.814 10.3167 21.2525 13.3333 26.4005 13.3833Z" fill="white"/>
</svg>
