<svg width="32" height="32" viewBox="0 0 32 32" fill="none" xmlns="http://www.w3.org/2000/svg">
<path d="M15.5154 10.0768C16.734 10.0768 17.7214 11.0642 17.7214 12.2828C17.7214 13.5014 16.734 14.4889 15.5154 14.4889C14.2968 14.4889 13.3093 13.5014 13.3093 12.2828C13.3093 11.0642 14.2968 10.0768 15.5154 10.0768ZM15.5154 19.5313C18.6354 19.5313 21.9234 21.0651 21.9234 21.7374V22.8929H9.10729V21.7374C9.10729 21.0651 12.3954 19.5313 15.5154 19.5313ZM15.5154 8.08081C13.1938 8.08081 11.3133 9.96121 11.3133 12.2828C11.3133 14.6044 13.1938 16.4848 15.5154 16.4848C17.837 16.4848 19.7174 14.6044 19.7174 12.2828C19.7174 9.96121 17.837 8.08081 15.5154 8.08081ZM15.5154 17.5354C12.7105 17.5354 7.11133 18.943 7.11133 21.7374V24.8889H23.9194V21.7374C23.9194 18.943 18.3202 17.5354 15.5154 17.5354Z" fill="white"/>
</svg>
