<svg width="99" height="99" viewBox="0 0 99 99" fill="none" xmlns="http://www.w3.org/2000/svg">
<rect y="24" width="99" height="51" rx="2" fill="white"/>
<path d="M4.94584 66.5V61.9125L14.572 53.4848C15.2936 52.8319 15.9078 52.2348 16.4147 51.6936C16.9216 51.1437 17.3082 50.5939 17.5745 50.0441C17.8408 49.4857 17.974 48.88 17.974 48.2271C17.974 47.4969 17.815 46.8741 17.4972 46.3586C17.1793 45.8346 16.7412 45.4308 16.1828 45.1473C15.6243 44.8638 14.9843 44.722 14.2627 44.722C13.5325 44.722 12.8924 44.8724 12.3426 45.1731C11.7928 45.4652 11.3633 45.8904 11.054 46.4488C10.7533 47.0072 10.603 47.6859 10.603 48.4849H4.55925C4.55925 46.6894 4.96302 45.1387 5.77057 43.8329C6.57811 42.5271 7.71211 41.5219 9.17257 40.8175C10.6416 40.1044 12.3469 39.7479 14.2885 39.7479C16.2901 39.7479 18.0298 40.083 19.5074 40.753C20.9851 41.4231 22.1277 42.3595 22.9352 43.5623C23.7513 44.7564 24.1594 46.1438 24.1594 47.7246C24.1594 48.7297 23.9575 49.7262 23.5538 50.7142C23.15 51.7022 22.424 52.7932 21.376 53.9873C20.3365 55.1815 18.8588 56.6119 16.943 58.2785L13.7859 61.1908V61.3583H24.4816V66.5H4.94584ZM74.0461 66.5V61.9125L83.6723 53.4848C84.3939 52.8319 85.0081 52.2348 85.515 51.6936C86.0219 51.1437 86.4085 50.5939 86.6748 50.0441C86.9411 49.4857 87.0743 48.88 87.0743 48.2271C87.0743 47.4969 86.9153 46.8741 86.5975 46.3586C86.2796 45.8346 85.8415 45.4308 85.283 45.1473C84.7246 44.8638 84.0846 44.722 83.363 44.722C82.6328 44.722 81.9927 44.8724 81.4429 45.1731C80.8931 45.4652 80.4635 45.8904 80.1543 46.4488C79.8536 47.0072 79.7033 47.6859 79.7033 48.4849H73.6595C73.6595 46.6894 74.0633 45.1387 74.8709 43.8329C75.6784 42.5271 76.8124 41.5219 78.2729 40.8175C79.7419 40.1044 81.4472 39.7479 83.3888 39.7479C85.3904 39.7479 87.1301 40.083 88.6077 40.753C90.0854 41.4231 91.228 42.3595 92.0355 43.5623C92.8516 44.7564 93.2597 46.1438 93.2597 47.7246C93.2597 48.7297 93.0578 49.7262 92.654 50.7142C92.2503 51.7022 91.5243 52.7932 90.4763 53.9873C89.4368 55.1815 87.9591 56.6119 86.0433 58.2785L82.8862 61.1908V61.3583H93.5819V66.5H74.0461Z" fill="#242424"/>
<path d="M29.9788 32.5684H40.1351L48.7506 53.5768H49.1482L57.7637 32.5684H67.92V66.5H59.9341V45.6572H59.6525L51.5009 66.2846H46.3979L38.2464 45.5412H37.9647V66.5H29.9788V32.5684Z" fill="#F03B3B"/>
</svg>
