<svg width="16" height="16" viewBox="0 0 16 16" fill="none" xmlns="http://www.w3.org/2000/svg">
<path d="M10.3333 13.2834L7.5 10.4501L8.43333 9.51675L10.3333 11.4167L14.1 7.65008L15.0333 8.58341L10.3333 13.2834ZM14 6.66675H12.6667V3.33341H11.3333V5.33341H4.66667V3.33341H3.33333V12.6667H7.33333V14.0001H3.33333C2.96667 14.0001 2.65278 13.8695 2.39167 13.6084C2.13056 13.3473 2 13.0334 2 12.6667V3.33341C2 2.96675 2.13056 2.65286 2.39167 2.39175C2.65278 2.13064 2.96667 2.00008 3.33333 2.00008H6.11667C6.23889 1.61119 6.47778 1.29175 6.83333 1.04175C7.18889 0.791748 7.57778 0.666748 8 0.666748C8.44444 0.666748 8.84167 0.791748 9.19167 1.04175C9.54167 1.29175 9.77778 1.61119 9.9 2.00008H12.6667C13.0333 2.00008 13.3472 2.13064 13.6083 2.39175C13.8694 2.65286 14 2.96675 14 3.33341V6.66675ZM8 3.33341C8.18889 3.33341 8.34722 3.26953 8.475 3.14175C8.60278 3.01397 8.66667 2.85564 8.66667 2.66675C8.66667 2.47786 8.60278 2.31953 8.475 2.19175C8.34722 2.06397 8.18889 2.00008 8 2.00008C7.81111 2.00008 7.65278 2.06397 7.525 2.19175C7.39722 2.31953 7.33333 2.47786 7.33333 2.66675C7.33333 2.85564 7.39722 3.01397 7.525 3.14175C7.65278 3.26953 7.81111 3.33341 8 3.33341Z" fill="#5F5C5C"/>
</svg>
