<svg width="24" height="24" viewBox="0 0 24 24" fill="none" xmlns="http://www.w3.org/2000/svg">
<g clip-path="url(#clip0_1647_129)">
<path d="M11.1559 20.3645L11.1546 20.3633C8.56146 18.0119 6.48221 16.1242 5.0404 14.3614C3.60892 12.6113 2.9 11.0944 2.9 9.5C2.9 6.91706 4.91706 4.9 7.5 4.9C8.96749 4.9 10.39 5.58754 11.3148 6.67351L12 7.47816L12.6852 6.67351C13.61 5.58754 15.0325 4.9 16.5 4.9C19.0829 4.9 21.1 6.91706 21.1 9.5C21.1 11.0944 20.3911 12.6114 18.9594 14.3629C17.5175 16.127 15.4384 18.0169 12.8455 20.3733C12.8452 20.3735 12.845 20.3737 12.8447 20.3739L12.0023 21.135L11.1559 20.3645Z" stroke="#363636" stroke-width="1.8"/>
</g>
<defs>
<clipPath id="clip0_1647_129">
<rect width="24" height="24" fill="white"/>
</clipPath>
</defs>
</svg>
