<svg width="32" height="32" viewBox="0 0 32 32" fill="none" xmlns="http://www.w3.org/2000/svg">
<path d="M18.9993 28.5334C18.4882 29.0445 17.8549 29.3001 17.0993 29.3001C16.3438 29.3001 15.7105 29.0445 15.1993 28.5334L3.46602 16.8001C3.22157 16.5556 3.02713 16.2667 2.88268 15.9334C2.73824 15.6001 2.66602 15.2445 2.66602 14.8667V5.33341C2.66602 4.60008 2.92713 3.9723 3.44935 3.45008C3.97157 2.92786 4.59935 2.66675 5.33268 2.66675H14.866C15.2438 2.66675 15.5993 2.73897 15.9327 2.88341C16.266 3.02786 16.5549 3.2223 16.7993 3.46675L28.5327 15.2334C29.0438 15.7445 29.2993 16.3723 29.2993 17.1167C29.2993 17.8612 29.0438 18.489 28.5327 19.0001L18.9993 28.5334ZM17.0993 26.6667L26.6327 17.1334L14.866 5.33341H5.33268V14.8667L17.0993 26.6667ZM8.66602 10.6667C9.22157 10.6667 9.69379 10.4723 10.0827 10.0834C10.4716 9.69453 10.666 9.2223 10.666 8.66675C10.666 8.11119 10.4716 7.63897 10.0827 7.25008C9.69379 6.86119 9.22157 6.66675 8.66602 6.66675C8.11046 6.66675 7.63824 6.86119 7.24935 7.25008C6.86046 7.63897 6.66602 8.11119 6.66602 8.66675C6.66602 9.2223 6.86046 9.69453 7.24935 10.0834C7.63824 10.4723 8.11046 10.6667 8.66602 10.6667Z" fill="#F03B3B"/>
</svg>
