<svg width="24" height="24" viewBox="0 0 24 24" fill="none" xmlns="http://www.w3.org/2000/svg">
<g clip-path="url(#clip0_1960_23)">
<path d="M17.7584 13.7909C17.7116 13.7685 15.962 12.9069 15.651 12.795C15.5241 12.7494 15.3881 12.7049 15.2435 12.7049C15.0073 12.7049 14.8088 12.8227 14.6542 13.0539C14.4794 13.3137 13.9503 13.9322 13.7868 14.117C13.7655 14.1413 13.7363 14.1705 13.7189 14.1705C13.7032 14.1705 13.4324 14.059 13.3505 14.0234C11.4736 13.2081 10.0489 11.2475 9.85357 10.9169C9.82567 10.8693 9.8245 10.8477 9.82427 10.8477C9.83112 10.8226 9.89424 10.7593 9.92681 10.7266C10.0221 10.6324 10.1254 10.5081 10.2253 10.3878C10.2726 10.3309 10.3199 10.2738 10.3664 10.2201C10.5114 10.0515 10.5759 9.92054 10.6507 9.76891L10.6899 9.69013C10.8726 9.32724 10.7166 9.02101 10.6661 8.92213C10.6248 8.83937 9.88598 7.05636 9.80744 6.86904C9.61855 6.41701 9.36897 6.20654 9.02214 6.20654C8.98996 6.20654 9.02214 6.20654 8.88718 6.21223C8.72284 6.21917 7.8279 6.33698 7.43222 6.58641C7.0126 6.85096 6.30273 7.69423 6.30273 9.17724C6.30273 10.512 7.14975 11.7722 7.51341 12.2515C7.52245 12.2636 7.53905 12.2881 7.56312 12.3233C8.95583 14.3573 10.692 15.8646 12.452 16.5677C14.1464 17.2445 14.9488 17.3227 15.405 17.3227H15.405C15.5967 17.3227 15.7502 17.3077 15.8855 17.2944L15.9714 17.2862C16.5567 17.2343 17.8431 16.5678 18.1357 15.7546C18.3662 15.1142 18.4269 14.4145 18.2736 14.1605C18.1686 13.9878 17.9875 13.901 17.7584 13.7909Z" fill="#B72D2D"/>
<path d="M12.213 0C5.71307 0 0.424969 5.24836 0.424969 11.6995C0.424969 13.786 0.983358 15.8284 2.04115 17.6159L0.0165014 23.5883C-0.0212129 23.6996 0.00683904 23.8227 0.0892027 23.9066C0.148657 23.9673 0.229307 24 0.31167 24C0.343229 24 0.375021 23.9952 0.406034 23.9854L6.63357 22.0064C8.33772 22.917 10.2638 23.3976 12.2131 23.3976C18.7124 23.3977 24 18.1498 24 11.6995C24 5.24836 18.7124 0 12.213 0ZM12.213 20.9606C10.3788 20.9606 8.60227 20.4309 7.07515 19.4289C7.0238 19.3951 6.96419 19.3778 6.90419 19.3778C6.87247 19.3778 6.84068 19.3826 6.80975 19.3925L3.69014 20.3841L4.6972 17.413C4.72977 17.3169 4.71349 17.2108 4.65349 17.1288C3.49058 15.5398 2.87585 13.6625 2.87585 11.6995C2.87585 6.59221 7.06448 2.43709 12.2129 2.43709C17.3608 2.43709 21.5489 6.59221 21.5489 11.6995C21.549 16.8061 17.3609 20.9606 12.213 20.9606Z" fill="#B72D2D"/>
</g>
<defs>
<clipPath id="clip0_1960_23">
<rect width="24" height="24" fill="white"/>
</clipPath>
</defs>
</svg>
