<svg width="72" height="32" viewBox="0 0 72 32" fill="none" xmlns="http://www.w3.org/2000/svg">
<path fill-rule="evenodd" clip-rule="evenodd" d="M23.5164 15.6496L28.6699 9.03656C28.8673 8.77675 28.6303 8.48252 28.2158 8.48252L24.2372 8.45654C23.9409 8.45654 23.3486 8.78552 23.0919 9.07098L21.2954 11.1225L18.7977 13.9875L18.8174 9.03622C18.8174 8.69881 18.4125 8.48219 18.1658 8.48219H13.6042C13.2882 8.48219 13.0019 8.58611 12.9923 9.09662C12.9827 9.5987 13.6931 9.70262 13.6931 9.84097V23.0758C13.6931 23.3269 14.088 23.7075 14.3647 23.7075L18.274 23.6903C18.5507 23.6815 18.7874 23.3353 18.7874 23.1015L18.797 17.5877L21.2946 20.2969L23.9405 23.1534C24.1575 23.3785 24.582 23.6903 25.0265 23.6903L29.2718 23.6643C29.6767 23.6643 29.637 23.2314 29.5385 23.119C27.5202 20.636 25.5128 18.1462 23.5164 15.6496ZM38.1668 8.48286H33.6553C33.1222 8.48286 33.0037 8.75988 32.9148 9.05411C33.0133 9.5906 33.6553 9.73772 33.6553 9.74649V23.1021C33.6553 23.4571 33.9023 23.6909 34.2479 23.6909L35.867 23.6822L38.2758 23.665C38.7199 23.665 38.838 23.4315 38.838 23.1021V9.03656C38.838 8.69914 38.5124 8.48286 38.1668 8.48286Z" fill="#CC2229"/>
<path fill-rule="evenodd" clip-rule="evenodd" d="M51.8997 1.66178C47.1018 0.597229 41.7019 0 35.9954 0C35.9557 0 35.9161 0.00843595 35.8672 0.00843595C30.6941 0.00843595 25.7576 0.510512 21.2953 1.40197C8.76688 3.91236 0 9.52125 0 16.0044C0 22.4879 8.76688 28.0964 21.2949 30.6065C25.7572 31.4983 30.6933 32 35.8668 32H35.995C41.7015 32 47.1014 31.4115 51.8993 30.347C63.7958 27.733 72 22.28 72 16.0044C72.0008 9.7291 63.7965 4.27575 51.8997 1.66178ZM51.8997 26.8588C47.171 27.8197 41.7508 28.365 35.9954 28.365C35.9557 28.365 35.9161 28.3566 35.8672 28.3566C30.6544 28.3566 25.7083 27.8977 21.2953 27.0926C10.2478 25.0759 2.62621 20.8605 2.62621 16.0047C2.62621 11.1489 10.2478 6.93359 21.2953 4.91685C25.7083 4.11177 30.6544 3.65288 35.8672 3.64445H35.9954C41.7508 3.64445 47.171 4.18971 51.8997 5.15034C62.2952 7.24503 69.3742 11.3305 69.3742 16.0044C69.3742 20.6783 62.2952 24.7641 51.8997 26.8588Z" fill="#CC2229"/>
<path fill-rule="evenodd" clip-rule="evenodd" d="M55.0101 9.05416C54.8627 8.75959 54.6057 8.48291 54.2697 8.48291H48.1687C47.9516 8.48291 47.6553 8.6388 47.6553 8.89827C47.6457 9.65982 48.5543 9.63418 48.5046 9.74654L43.3611 23.0502C43.2726 23.2753 43.4993 23.6907 43.8152 23.6907L47.399 23.6647C47.7145 23.6647 48.159 23.4312 48.2876 23.0934L49.9855 18.6274C50.5582 17.1383 51.1312 15.6497 51.6935 14.161C51.7235 14.1006 51.8124 14.0658 51.9009 14.0658C52.0391 14.0658 52.1873 14.109 52.2165 14.1957L55.5439 23.1457C55.6132 23.3448 56.0769 23.665 56.3232 23.665L60.0551 23.691C60.2722 23.691 60.5293 23.31 60.4604 23.137L55.0101 9.05416Z" fill="#CC2229"/>
</svg>
