<svg width="84" height="32" viewBox="0 0 84 32" fill="none" xmlns="http://www.w3.org/2000/svg">
<g clip-path="url(#clip0_1706_169)">
<path d="M41.9988 0C18.6976 0 0.0195312 7.09886 0.0195312 15.9991C0.0195312 24.8469 18.8519 32 41.9991 32C65.1477 32 83.9815 24.8221 83.9815 15.9991C83.9809 7.17786 65.1477 0 41.9988 0ZM83.7245 14.7637C83.7396 14.8418 83.7501 14.9208 83.7634 14.9966C83.7524 14.9211 83.737 14.8427 83.7245 14.7637Z" fill="#C9C9CA"/>
<path d="M41.9995 0.638672C19.1618 0.638672 0.662109 7.49994 0.662109 15.9907C0.662109 24.4774 19.1618 31.3431 41.9995 31.3431C64.8402 31.3431 83.3352 24.4774 83.3352 15.9907C83.3352 7.50053 64.8399 0.638672 41.9995 0.638672Z" fill="url(#paint0_radial_1706_169)"/>
<path d="M42.1877 3.85807C61.6041 3.85807 77.6363 8.67947 80.0855 14.9199V14.9188C78.4495 8.35374 62.0235 3.19629 41.9966 3.19629C20.8867 3.19629 3.77539 8.92531 3.77539 15.9956C3.77539 16.5719 3.88995 17.1378 4.10862 17.6941C4.01384 17.3314 3.96559 16.9578 3.96506 16.5825C3.96564 9.55585 21.0776 3.85807 42.1877 3.85807Z" fill="url(#paint1_linear_1706_169)"/>
<path d="M81.3538 14.3945C81.5211 14.9114 81.6066 15.452 81.607 15.9961C81.607 23.7364 63.8732 30.0101 41.9957 30.0101C22.5265 30.0101 6.34004 25.0399 3.00977 18.4955C5.53669 25.2975 22.0889 30.5522 42.1538 30.5746H42.3963C64.2166 30.5528 81.8869 24.3424 81.8869 16.6794C81.8874 15.902 81.705 15.1368 81.3538 14.3945Z" fill="url(#paint2_linear_1706_169)"/>
<path d="M49.6178 18.1529C49.5305 17.9277 49.5143 17.6748 49.5645 17.4233C49.5822 17.334 49.4688 17.2538 49.376 17.3508C48.4888 18.2909 48.4227 19.5068 49.0039 20.0528C49.2112 20.2491 49.4502 20.3372 49.7046 20.3537C49.3261 19.8656 49.1471 18.9084 49.6178 18.1529Z" fill="url(#paint3_linear_1706_169)"/>
<path d="M58.6065 19.9626H58.6077C58.6529 19.8735 58.6982 19.7795 58.7466 19.6787C58.7834 19.6012 58.7652 19.5794 58.7335 19.5664C58.6425 19.5331 58.5482 19.462 58.5352 19.3886C58.5291 19.3754 58.5285 19.3627 58.5273 19.3477L58.5285 19.3556C58.5401 19.4974 58.5769 19.7645 58.6065 19.9626Z" fill="url(#paint4_linear_1706_169)"/>
<path d="M59.6133 16.2812C59.9094 16.5698 60.0901 16.9197 60.1237 17.2416C60.1368 17.394 60.251 17.4108 60.3444 17.2779C60.3688 17.2416 60.3966 17.1965 60.4294 17.1458C60.4039 17.109 60.3757 17.0736 60.3496 17.0388C60.1203 16.7706 59.8744 16.5176 59.6133 16.2812Z" fill="url(#paint5_linear_1706_169)"/>
<path d="M47.3262 15.689C47.564 16.0194 47.6751 16.4914 47.6585 17.0954C47.6545 17.2519 47.7667 17.2416 47.8398 17.1349C47.8816 17.0756 47.9184 17.0231 47.957 16.9692V16.9645C47.7835 16.423 47.5173 15.8912 47.3262 15.689Z" fill="url(#paint6_linear_1706_169)"/>
<path d="M58.3712 17.2868C57.6398 16.9298 56.5238 17.5845 55.514 18.8476C54.6862 19.8805 54.2402 20.9308 54.2248 21.9549C54.2184 22.3198 54.3545 22.7708 54.6706 22.9353C54.7688 22.9908 54.8758 23.0284 54.9867 23.0464C54.9512 22.9122 54.9327 22.7739 54.9316 22.6349C54.9191 21.5781 55.2422 20.5228 56.0719 19.4885C57.0745 18.2315 58.1293 17.6051 58.8616 17.9512C58.8239 17.6747 58.6824 17.4362 58.3712 17.2868Z" fill="url(#paint7_linear_1706_169)"/>
<path d="M36.4947 19.38C37.2656 18.3177 38.1339 17.9159 39.124 17.4811C39.2545 17.423 39.2702 17.3481 39.2453 17.2308C39.2029 17.0304 39.0654 16.5328 39.0234 16.4131C39.0547 16.5224 39.0269 16.6062 38.8981 16.6548C37.7746 17.0884 36.6481 17.7617 35.8689 18.8226C34.9849 20.0265 34.7479 21.4744 35.3384 22.3087C35.4791 22.5038 35.6467 22.6485 35.8317 22.7429C35.5136 21.7465 35.7459 20.4106 36.4947 19.38Z" fill="url(#paint8_linear_1706_169)"/>
<path d="M42.1496 25.6815C42.9092 25.6815 43.8427 25.6815 44.4744 25.6777C44.5683 25.6724 44.6353 25.6184 44.6846 25.5471C45.6287 24.0437 46.6365 22.4127 47.6011 20.9082C47.8125 21.6672 47.9212 22.0204 48.3148 22.3779C48.7153 22.7414 49.0857 22.8369 49.6306 22.8416C50.1257 22.8478 50.6135 22.6468 51.1941 22.4018C51.3899 22.3169 51.5779 22.2144 51.7559 22.0955C51.7559 21.8167 51.7837 21.5363 51.8324 21.2687C51.8365 21.2398 51.8087 21.0544 51.6529 21.1643C51.33 21.403 50.9767 21.596 50.6028 21.7383C50.068 21.9411 49.8188 22.0171 49.3238 22.0124C48.7011 22.0074 48.1399 21.7383 47.7455 21.1122C47.5248 20.774 47.4334 20.2585 47.4126 19.88C47.4097 19.8384 47.3563 19.7647 47.2977 19.8602C46.251 21.4862 45.2737 23.0574 44.2348 24.7085C44.1806 24.7863 44.1336 24.837 44.026 24.8405C43.3842 24.8405 42.6812 24.8388 41.9744 24.8429C41.9005 24.8429 41.8474 24.8084 41.832 24.7559C41.8874 25.008 41.9782 25.4646 42.002 25.5713C42.0176 25.6435 42.0707 25.6815 42.1496 25.6815Z" fill="url(#paint9_linear_1706_169)"/>
<path d="M52.3123 24.7821C52.4875 25.1241 52.8805 25.5079 53.1189 25.6285C54.4802 26.3103 56.4239 25.5374 57.6725 24.3176C57.6849 24.3008 57.6878 24.2996 57.7055 24.2798C57.7626 24.4989 57.8328 24.7651 57.843 24.8019C57.928 25.0852 58.0617 25.3425 58.1785 25.479C59.0326 26.46 60.8458 26.0134 62.7333 24.5289C63.7884 23.7 64.5702 22.8676 65.5285 21.7347C65.567 21.6876 65.5636 21.618 65.5421 21.5119C65.4873 21.2654 65.4011 20.8197 65.353 20.5957C65.3514 20.6331 65.3386 20.6691 65.3162 20.6989C64.3159 21.9384 63.2101 23.1102 62.1526 23.9391C60.5082 25.234 58.8667 25.5627 58.0556 24.7326C57.7519 24.424 57.586 23.983 57.566 23.6089C57.5562 23.4061 57.4549 23.3967 57.3592 23.4919C56.39 24.4679 54.7053 25.5486 53.1696 24.7786C52.3779 24.3813 51.9649 23.6358 51.8164 22.8154C51.8176 22.8239 51.8205 22.8343 51.8225 22.8434C51.9173 23.4247 52.0418 24.2639 52.3123 24.7821Z" fill="url(#paint10_linear_1706_169)"/>
<path d="M51.6355 19.4885C52.1407 19.2105 52.5844 18.621 52.5293 17.6644C52.5 17.1884 52.3646 16.6978 52.1453 16.3022C52.2944 16.5908 52.3567 16.9269 52.304 17.2809C52.2071 17.8982 51.8779 18.4423 51.3185 18.7241C50.8443 18.9603 50.2904 18.9187 49.9023 18.567C49.7858 18.458 49.6933 18.3252 49.6309 18.1773C49.7306 18.6437 49.8179 18.9865 49.9374 19.1701C50.3031 19.7308 50.9365 19.8723 51.6355 19.4885Z" fill="url(#paint11_linear_1706_169)"/>
<path d="M66.6609 11.4106C66.3425 11.971 60.1932 21.4867 59.8046 22.471C59.6816 22.7826 59.6671 23.0208 59.7921 23.1923C59.9191 23.3651 60.1042 23.4308 60.3144 23.4273C60.3359 23.307 60.3808 23.1717 60.4368 23.0287C60.8254 22.0409 66.5843 13.146 66.9004 12.5829C66.9265 12.5349 66.9173 12.4809 66.9089 12.445C66.8903 12.3557 66.6971 11.41 66.6783 11.3213C66.6834 11.3522 66.6772 11.384 66.6609 11.4106Z" fill="url(#paint12_linear_1706_169)"/>
<path d="M41.1406 15.8389C41.1586 15.8586 41.1728 15.8784 41.1885 15.8981C41.5585 16.4579 41.7604 17.2458 41.7807 18.0597C41.8027 18.2313 41.8749 18.2354 41.9567 18.1473C42.0316 18.07 42.1046 17.9878 42.1766 17.9085C42.0684 17.4714 41.9008 17.0781 41.7282 16.6987C41.6638 16.562 41.3831 16.0714 41.1406 15.8389Z" fill="url(#paint13_linear_1706_169)"/>
<path d="M31.2157 24.7331C31.3276 24.7905 31.4433 24.7384 31.499 24.7065C31.874 24.5114 32.6043 23.9407 32.9189 23.5424C33.0144 23.4519 33.106 23.5136 33.1365 23.6099C33.2678 24.0332 33.4604 24.3596 33.6762 24.7068C33.9111 25.0936 34.3832 25.4945 34.9949 25.6648C35.7863 25.8904 36.6405 25.9301 37.7631 25.4945C38.6633 25.1443 39.6068 24.4309 40.3321 23.6294C41.2027 22.6687 41.5177 22.0532 41.8474 21.6335C42.4121 20.923 43.2911 19.6646 44.5231 18.5963C44.9541 18.2217 45.426 17.9788 45.7221 18.0967C45.9001 17.6304 45.8158 17.373 45.6264 17.2492C45.3381 17.0585 44.7615 17.3447 44.2749 17.722C42.9483 18.7431 41.8338 20.3338 41.2694 21.0454C40.9365 21.464 40.6227 22.0815 39.7532 23.0413C38.3864 24.5494 36.574 25.4163 34.8258 24.8177C33.8717 24.4916 33.1811 23.7116 32.9184 22.7536C32.8656 22.5688 32.7638 22.5169 32.6646 22.6389C32.3824 22.9977 31.805 23.5245 31.3227 23.8561C31.2699 23.8947 31.1394 23.9731 31.0274 23.9165C30.9265 23.8699 30.5683 23.3558 30.4982 23.2079C30.4893 23.1926 30.4833 23.1758 30.4805 23.1583V23.1648C30.6063 23.7974 30.622 23.8711 30.7922 24.1635C30.9851 24.486 31.173 24.7148 31.2157 24.7331Z" fill="url(#paint14_linear_1706_169)"/>
<path d="M20.6742 19.0503C21.1156 18.1456 21.7368 17.7138 22.3476 17.3211C22.6104 17.1519 22.727 16.988 22.5706 16.5473C22.5263 16.4215 22.5013 16.1951 22.452 15.9946C22.4677 16.1904 22.3726 16.3587 22.2023 16.4489C21.4564 16.8356 20.5585 17.4986 20.1153 18.403C19.7551 19.1399 19.6821 20.0316 20.2308 20.8788C20.2769 20.9463 20.3268 21.0147 20.3819 21.0775H20.3825C20.2061 20.3742 20.3958 19.6166 20.6742 19.0503Z" fill="url(#paint15_linear_1706_169)"/>
<path d="M28.3108 8.06501C31.0227 7.15591 34.0459 7.73073 36.4742 8.25897C36.8138 8.04349 37.1111 7.89463 37.4089 7.72867C37.5571 7.64966 37.3912 7.55563 37.3451 7.55563C34.2103 6.95752 30.9526 6.18167 27.8404 7.35312C25.6832 8.17142 24.738 9.90973 25.1942 11.0703C25.2812 11.2917 25.4202 11.4638 25.6014 11.5861C25.4492 10.5158 26.2386 8.76186 28.3108 8.06501Z" fill="url(#paint16_linear_1706_169)"/>
<path d="M19.4893 24.7251C20.3783 25.3618 21.2535 25.5728 22.2747 25.5911C24.3489 25.628 26.2436 24.7575 28.2528 22.6852C30.1817 20.6954 31.8514 17.9148 33.4978 15.1592C33.5523 15.0622 33.6106 15.0189 33.8864 14.9823C34.9195 14.8529 35.8449 14.7928 36.7573 14.7058C37.0294 14.6799 37.2361 14.6545 37.3359 14.7548C37.6654 15.0899 38.0488 15.3962 38.3022 15.5459C38.4707 15.548 38.6123 15.5857 38.7112 15.6756C38.8176 15.6615 38.9148 15.6014 38.9777 15.5392C39.096 15.4215 39.1007 15.2839 39.0812 15.1672C39.0403 14.9381 38.9794 14.4868 38.9072 14.3559C38.9571 14.4556 38.9249 14.5965 38.8266 14.7094C38.7544 14.7931 38.6416 14.8724 38.498 14.8706C38.3794 14.8677 38.3092 14.8264 38.1601 14.7433C37.8524 14.5761 37.4725 14.2993 37.217 13.9724C37.1309 13.8628 37.0865 13.8598 36.869 13.8722C35.8934 13.93 34.371 14.0785 33.3389 14.2103C33.09 14.2418 33.0529 14.2893 33.001 14.376C31.3563 17.1333 29.6005 20.1056 27.6725 22.0956C25.605 24.2298 23.8852 24.7902 22.0609 24.8046C19.9557 24.8197 18.0825 23.6073 17.6074 21.4769V21.4781C17.8641 22.6684 18.6184 24.1004 19.4893 24.7251Z" fill="url(#paint17_linear_1706_169)"/>
<path d="M27.2686 15.4622C27.2225 15.3909 27.1972 15.3079 27.1955 15.2226C27.1741 15.5799 27.3159 16.1052 27.4296 16.2805C27.5546 16.4763 27.9064 16.5724 28.1848 16.3613C28.8141 15.8903 29.3823 15.6158 30.018 15.4935C30.1813 15.2662 30.3576 15.0145 30.5595 14.7315C30.5771 14.7094 30.5818 14.6799 30.5742 14.6652C30.5629 14.6395 30.5426 14.6321 30.5017 14.6304C29.5699 14.6566 28.7555 14.9399 27.9667 15.5392C27.7396 15.7078 27.4119 15.6839 27.2686 15.4622Z" fill="url(#paint18_linear_1706_169)"/>
<path d="M52.6328 9.00499C51.3292 9.7322 49.967 9.95181 48.5424 9.96449C45.0984 9.99308 41.89 8.62914 38.571 7.89632C38.5756 8.04342 38.6133 8.21999 38.4915 8.31314C36.6534 9.69094 34.9913 11.0914 33.8776 13.0567C33.8408 13.1027 33.8611 13.1452 33.9258 13.1404C34.2193 13.1269 34.5032 13.1133 34.7831 13.0977C35.7973 11.4829 36.8822 10.5573 38.5388 9.3145C38.6629 9.219 38.7868 9.15267 38.7462 8.79333C42.0756 9.54473 44.6074 10.7893 48.907 10.8008C50.19 10.8052 51.9991 10.3704 52.9724 9.77524C54.091 9.09136 54.3886 8.58846 54.4286 8.05698C54.4417 7.89102 54.3984 7.64458 54.3721 7.51753C54.3341 7.33742 54.3091 7.1075 54.2587 6.93652C54.2758 7.00609 54.2836 7.0848 54.2772 7.17117C54.2433 7.78254 53.7781 8.37003 52.6328 9.00499Z" fill="url(#paint19_linear_1706_169)"/>
<path d="M38.2471 11.2865C38.2062 11.326 38.1601 11.3664 38.1146 11.4089C37.786 11.7547 37.6859 12.2124 37.7341 12.5588C37.761 12.6997 37.8144 12.7271 37.8776 12.715C37.9427 12.7004 38.0065 12.6801 38.0682 12.6543C38.0914 12.4636 38.17 12.2785 38.3596 12.1087C38.4968 11.9855 38.6688 11.9283 38.8158 11.953C38.9426 11.6978 38.9788 11.3906 38.8242 11.2535C38.6758 11.1232 38.4388 11.1477 38.2471 11.2865Z" fill="url(#paint20_linear_1706_169)"/>
<path d="M39.5716 12.4842C39.2557 13.0983 38.7349 13.4255 38.2352 13.5844C38.2352 13.5844 38.1305 13.6085 38.1461 13.7058C38.1583 13.8149 38.5127 14.043 38.734 14.2031C38.7662 14.1943 38.8143 14.1763 38.8143 14.1763C39.0707 14.0728 39.4982 13.8078 39.7453 13.258C39.9036 12.9034 39.9898 12.6252 39.921 12.0164C39.8712 11.592 39.7868 11.2082 39.6748 11.0098C39.8909 11.4546 39.8047 12.0256 39.5716 12.4842Z" fill="url(#paint21_linear_1706_169)"/>
<path d="M30.3196 10.2919C29.409 12.4679 27.6688 14.1938 25.5494 14.2652C24.3641 14.3056 23.4569 13.7375 22.9746 12.8712C23.327 13.5179 23.9233 14.0851 24.4546 14.4249C24.9137 14.7156 25.4801 14.8774 26.128 14.8553C28.3365 14.7787 30.0099 12.9286 30.565 11.3657C30.7132 10.9442 30.5974 10.4926 30.529 10.1872C30.5012 10.0705 30.4632 9.80429 30.3791 9.61475H30.3782C30.4408 9.77127 30.4408 10.0018 30.3196 10.2919Z" fill="url(#paint22_linear_1706_169)"/>
<path d="M41.9988 0C18.6976 0 0.0195312 7.09886 0.0195312 15.9991C0.0195312 24.8469 18.8519 32 41.9991 32C65.1477 32 83.9815 24.8221 83.9815 15.9991C83.9809 7.17786 65.1477 0 41.9988 0ZM0.307229 16.1757C0.298819 14.3033 1.11087 12.4429 2.81821 10.6916C8.82796 4.52986 24.5748 0.365231 41.9292 0.293305C64.9189 0.196028 83.6529 7.16342 83.6929 15.8246C83.7011 17.6976 82.8409 19.5332 81.1332 21.283C75.1226 27.446 59.4242 31.6368 42.0713 31.707C19.0818 31.8046 0.346092 24.8381 0.307229 16.1757ZM83.7245 14.7637C83.7396 14.8418 83.7501 14.9208 83.7634 14.9966C83.7524 14.9211 83.737 14.8427 83.7245 14.7637Z" fill="#4B4B4B"/>
<path d="M0.146484 15.9992C0.146484 16.4172 0.194917 16.8322 0.279023 17.2411C0.214137 16.8901 0.180071 16.534 0.177226 16.1769C0.169106 14.2794 1.00378 12.364 2.72532 10.5985C8.76872 4.40258 24.5315 0.233526 41.9291 0.159241C44.3397 0.148334 46.7019 0.216723 49.0041 0.356743C46.6721 0.207947 44.3361 0.13343 41.9996 0.133301C18.7915 0.133301 0.146484 7.20681 0.146484 15.9992Z" fill="url(#paint23_linear_1706_169)"/>
<path d="M81.2264 21.3813C75.2036 27.5537 59.4452 31.7663 42.0714 31.8397C39.6672 31.8523 37.2632 31.7858 34.8633 31.6405C37.1817 31.7908 39.5677 31.8669 41.9989 31.8669C65.075 31.8669 83.8496 24.7058 83.8496 16.0042C83.8496 15.6717 83.8195 15.3424 83.767 15.0146C83.805 15.2838 83.8215 15.5553 83.8241 15.8279C83.8343 17.7257 82.948 19.6159 81.2264 21.3813Z" fill="url(#paint24_linear_1706_169)"/>
<path d="M41.9956 1.98193C20.1169 1.98193 2.38086 8.25453 2.38086 15.996C2.38086 23.7363 20.1169 30.0101 41.9956 30.0101C63.8725 30.0101 81.6063 23.7363 81.6063 15.996C81.6063 8.25453 63.8722 1.98193 41.9956 1.98193ZM41.9956 28.7962C20.8857 28.7962 3.7744 23.0669 3.7744 15.9957C3.7744 8.92486 20.8855 3.19613 41.9956 3.19613C63.1069 3.19613 80.2162 8.92515 80.2162 15.9957C80.2162 23.0672 63.1069 28.7962 41.9956 28.7962Z" fill="white"/>
<path d="M66.6614 11.4106C66.7162 11.313 66.6596 11.2417 66.5384 11.2417C65.9038 11.2417 65.0747 11.2438 64.4163 11.2438C64.2589 11.2438 64.1791 11.2614 64.1049 11.4106C63.8612 11.8849 60.8961 16.4006 60.3442 17.277C60.2508 17.4105 60.1365 17.3934 60.1235 17.2407C60.069 16.7196 59.6255 16.1191 58.9283 15.8344C58.3964 15.6147 57.877 15.5752 57.3382 15.6486C56.3628 15.7816 55.4945 16.3057 54.7303 16.8944C53.5787 17.7846 52.5853 18.9369 51.304 19.7885C50.6045 20.2516 49.6454 20.6563 49.0048 20.0526C48.4236 19.5061 48.4906 18.2907 49.3769 17.3507C49.4697 17.2537 49.5831 17.3339 49.5654 17.4232C49.481 17.8498 49.5834 18.2719 49.9009 18.5672C50.2893 18.9189 50.8429 18.9608 51.3174 18.7244C51.8777 18.4428 52.2063 17.8975 52.3026 17.2811C52.4511 16.3207 51.7243 15.4753 50.8151 15.4078C50.0776 15.3547 49.3696 15.6159 48.6803 16.1946C48.3357 16.4864 48.1379 16.7001 47.8395 17.1343C47.7658 17.2407 47.6539 17.2516 47.6582 17.0948C47.6922 15.8677 47.193 15.1764 46.1939 15.1546C45.419 15.1343 44.5916 15.5634 43.9457 16.0852C43.2386 16.6615 42.6203 17.4282 41.9559 18.1469C41.8741 18.235 41.8019 18.2309 41.7799 18.0593C41.7595 17.2452 41.5577 16.4572 41.1876 15.8977C41.0551 15.7035 40.7807 15.6071 40.549 15.7385C40.442 15.7975 40.0702 15.972 39.7976 16.1943C39.6645 16.3072 39.6125 16.4696 39.6705 16.6783C40.0273 17.8951 39.9493 19.2756 39.4643 20.4438C39.02 21.5106 38.1546 22.4766 37.1367 22.8014C36.4676 23.0169 35.7695 22.9114 35.3383 22.3074C34.7478 21.4732 34.9847 20.0252 35.8687 18.8213C36.648 17.7604 37.7744 17.0872 38.8979 16.6535C39.0305 16.6008 39.058 16.515 39.02 16.4009C38.9591 16.2134 38.862 15.9582 38.822 15.842C38.7193 15.564 38.4296 15.5172 38.0769 15.5567C37.2605 15.6534 36.5241 15.9372 35.7965 16.3334C33.8916 17.3704 32.9366 19.377 32.5173 20.4515C32.3163 20.9682 32.1434 21.2889 31.9195 21.5752C31.6188 21.959 31.2429 22.308 30.5527 22.9235C30.4906 22.9804 30.4454 23.0974 30.4973 23.2074C30.5675 23.3553 30.9259 23.8694 31.0266 23.916C31.1385 23.9726 31.269 23.8942 31.3221 23.8556C31.8044 23.5239 32.3818 22.9972 32.664 22.6384C32.7629 22.5164 32.8647 22.5683 32.9178 22.7531C33.1805 23.7111 33.8711 24.4911 34.8252 24.8171C36.5732 25.4147 38.3852 24.5489 39.7526 23.0408C40.6218 22.081 40.9356 21.4634 41.2688 21.0449C41.8335 20.3333 42.948 18.742 44.274 17.7215C44.7612 17.3448 45.3375 17.0577 45.6261 17.2487C45.8584 17.402 45.9338 17.756 45.5599 18.4461C44.2079 20.9576 42.2172 23.9078 41.8509 24.6211C41.7851 24.7455 41.8439 24.844 41.9716 24.844C42.6786 24.8404 43.3813 24.8422 44.0231 24.8422C44.1307 24.8372 44.1777 24.7868 44.2317 24.7101C45.2705 23.0582 46.2476 21.4867 47.2948 19.8616C47.3531 19.767 47.4071 19.8407 47.4097 19.8811C47.4306 20.2599 47.5228 20.7745 47.7423 21.1135C48.137 21.7397 48.6982 22.0088 49.3209 22.0135C49.816 22.0194 50.0651 21.9428 50.5999 21.7397C50.9736 21.597 51.3268 21.4041 51.65 21.166C51.8058 21.0561 51.8336 21.2415 51.8296 21.2704C51.59 22.5812 51.8849 24.1356 53.1677 24.7782C54.7036 25.5476 56.3883 24.4669 57.3573 23.4915C57.4527 23.3975 57.5539 23.4063 57.5641 23.6088C57.5835 23.9835 57.7506 24.4248 58.0536 24.7325C58.8654 25.5618 60.5063 25.2334 62.1507 23.9393C63.2081 23.1101 64.314 21.9386 65.3142 20.6988C65.3493 20.6504 65.3783 20.5723 65.307 20.4957C65.1559 20.3339 64.9355 20.149 64.7841 20.0058C64.7151 19.9474 64.6147 19.9642 64.5553 20.009C63.5318 20.9977 62.6113 22.1279 61.2783 23.06C60.8291 23.3801 60.1136 23.6369 59.7914 23.1947C59.6661 23.0231 59.6806 22.7841 59.8039 22.4734C60.1937 21.4867 66.3432 11.9713 66.6614 11.4106ZM58.5348 19.3897C58.5478 19.4628 58.6406 19.5329 58.7331 19.5671C58.7642 19.5801 58.783 19.6019 58.7456 19.6792C58.4855 20.2493 58.2448 20.5768 57.917 21.0726C57.6166 21.5295 57.2758 21.887 56.8657 22.2299C56.2454 22.7513 55.3843 23.3179 54.6723 22.9362C54.3562 22.7705 54.2193 22.3207 54.2266 21.9557C54.2428 20.9314 54.6886 19.8808 55.5157 18.8479C56.5247 17.5847 57.6409 16.93 58.3729 17.287C59.1296 17.6543 58.8883 18.546 58.5496 19.2464C58.5235 19.2995 58.5206 19.3461 58.5348 19.3897Z" fill="white"/>
<path d="M22.0639 24.8061C19.7713 24.8229 17.7528 23.3811 17.5205 20.8897C17.392 19.5086 17.776 18.2764 18.5451 17.2621C19.2273 16.3583 20.3833 15.6078 21.3589 15.4239C21.6788 15.3652 22.1057 15.4035 22.2832 15.617C22.5599 15.945 22.4792 16.3058 22.2037 16.4488C21.4578 16.8356 20.5599 17.4985 20.1168 18.4029C19.7565 19.1399 19.6835 20.0316 20.2322 20.8788C21.1541 22.2907 23.7196 22.3305 26.1056 20.0767C26.697 19.5245 27.2254 18.9948 27.7642 18.3684C28.8147 17.146 29.1636 16.7 30.5609 14.7311C30.5786 14.709 30.5832 14.6796 30.5757 14.6648C30.5644 14.6392 30.5441 14.6318 30.5032 14.63C29.5713 14.6563 28.7575 14.9395 27.9681 15.5388C27.7405 15.7072 27.4127 15.6833 27.2695 15.4616C27.1102 15.2105 27.2242 14.8835 27.487 14.6996C28.7575 13.8017 30.1467 13.6378 31.5652 13.394C31.5643 13.394 31.6644 13.3982 31.7447 13.2891C32.3268 12.5303 32.7662 11.8453 33.3877 11.0765C34.0133 10.2977 34.8204 9.58371 35.4378 9.04456C36.2995 8.29111 36.852 8.03789 37.4134 7.72749C37.5616 7.64849 37.3954 7.55446 37.3493 7.55446C34.2145 6.95635 30.9568 6.18049 27.8443 7.35194C25.6874 8.17025 24.742 9.90856 25.1982 11.0691C25.5201 11.8927 26.5865 12.0263 27.5841 11.5304C28.4556 11.0932 29.1949 10.425 29.7239 9.59639C30.0275 9.12091 30.6679 9.46374 30.3219 10.2903C29.4112 12.4664 27.6711 14.1923 25.5517 14.2636C23.7469 14.3243 22.5825 12.9757 22.5871 11.3111C22.5932 8.02787 26.1903 5.86538 29.9684 5.54171C34.519 5.16026 38.8293 6.39244 43.3466 6.94928C46.8088 7.37464 50.1284 7.38349 53.6075 6.57166C54.0181 6.48087 54.3081 6.74706 54.2797 7.16948C54.2458 7.77996 53.7803 8.36746 52.6353 9.003C51.3314 9.73022 49.9692 9.94983 48.5449 9.9625C45.1009 9.9911 41.8925 8.62716 38.5735 7.89434C38.5781 8.04143 38.6158 8.218 38.494 8.31115C36.6559 9.68895 34.9938 11.0894 33.8801 13.0547C33.8433 13.1007 33.8636 13.1432 33.9283 13.1385C34.8946 13.0869 35.7647 13.0621 36.6661 12.9887C36.8232 12.9754 36.829 12.9359 36.816 12.8186C36.7368 12.1409 36.9308 11.3677 37.5173 10.8356C38.117 10.2894 38.8687 10.2275 39.3664 10.6202C39.9328 11.0691 39.8829 11.8765 39.5738 12.482C39.2579 13.096 38.7371 13.4232 38.2374 13.5821C38.2374 13.5821 38.1327 13.6063 38.1483 13.7035C38.1678 13.8574 38.849 14.2418 38.9073 14.3441C38.9636 14.4405 38.9354 14.5914 38.8305 14.7067C38.7582 14.7904 38.6454 14.8697 38.5019 14.8676C38.3832 14.865 38.3131 14.8237 38.164 14.7406C37.8566 14.5731 37.4764 14.2966 37.2209 13.9697C37.1347 13.8601 37.0903 13.8571 36.8728 13.8695C35.8972 13.9273 34.3749 14.0758 33.3427 14.2076C33.0939 14.2392 33.0568 14.2866 33.0049 14.3733C31.3602 17.1306 29.6044 20.1029 27.6764 22.0929C25.608 24.2307 23.8881 24.7908 22.0639 24.8061ZM37.7351 12.5586C37.762 12.6995 37.8154 12.7269 37.8786 12.7149C38.1915 12.6512 38.5338 12.3888 38.7374 12.0864C38.923 11.8108 39.0091 11.4131 38.8252 11.2533C38.6614 11.111 38.3948 11.1522 38.1968 11.3294C37.8044 11.6828 37.6852 12.1837 37.7351 12.5586Z" fill="white"/>
</g>
<defs>
<radialGradient id="paint0_radial_1706_169" cx="0" cy="0" r="1" gradientUnits="userSpaceOnUse" gradientTransform="translate(41.7214 52.7922) scale(180.889 93.3814)">
<stop stop-color="#00082E"/>
<stop offset="0.155" stop-color="#000A30"/>
<stop offset="0.242" stop-color="#010F39"/>
<stop offset="0.312" stop-color="#011946"/>
<stop offset="0.373" stop-color="#02275A"/>
<stop offset="0.414" stop-color="#03346C"/>
<stop offset="0.439" stop-color="#0B4F87"/>
<stop offset="0.48" stop-color="#1676AF"/>
<stop offset="0.513" stop-color="#1C8EC7"/>
<stop offset="0.533" stop-color="#1F97D0"/>
<stop offset="1" stop-color="#1F97D0"/>
</radialGradient>
<linearGradient id="paint1_linear_1706_169" x1="41.9231" y1="32.3521" x2="41.9231" y2="-0.150745" gradientUnits="userSpaceOnUse">
<stop stop-color="#00082E"/>
<stop offset="0.321" stop-color="#010A30"/>
<stop offset="0.501" stop-color="#030F39"/>
<stop offset="0.647" stop-color="#071846"/>
<stop offset="0.773" stop-color="#0D245A"/>
<stop offset="0.809" stop-color="#0F2961"/>
<stop offset="0.839" stop-color="#0B386E"/>
<stop offset="0.896" stop-color="#054E83"/>
<stop offset="0.951" stop-color="#015B90"/>
<stop offset="1" stop-color="#006094"/>
</linearGradient>
<linearGradient id="paint2_linear_1706_169" x1="7633.47" y1="32.3601" x2="7633.47" y2="-0.172594" gradientUnits="userSpaceOnUse">
<stop stop-color="#00082E"/>
<stop offset="0.321" stop-color="#010A30"/>
<stop offset="0.501" stop-color="#030F39"/>
<stop offset="0.647" stop-color="#071846"/>
<stop offset="0.773" stop-color="#0D245A"/>
<stop offset="0.809" stop-color="#0F2961"/>
<stop offset="0.839" stop-color="#0B386E"/>
<stop offset="0.896" stop-color="#054E83"/>
<stop offset="0.951" stop-color="#015B90"/>
<stop offset="1" stop-color="#006094"/>
</linearGradient>
<linearGradient id="paint3_linear_1706_169" x1="49.1668" y1="26.8415" x2="49.1668" y2="4.00439" gradientUnits="userSpaceOnUse">
<stop stop-color="#00082E"/>
<stop offset="0.321" stop-color="#010A30"/>
<stop offset="0.501" stop-color="#030F39"/>
<stop offset="0.647" stop-color="#071846"/>
<stop offset="0.773" stop-color="#0D245A"/>
<stop offset="0.809" stop-color="#0F2961"/>
<stop offset="0.839" stop-color="#0B386E"/>
<stop offset="0.896" stop-color="#054E83"/>
<stop offset="0.951" stop-color="#015B90"/>
<stop offset="1" stop-color="#006094"/>
</linearGradient>
<linearGradient id="paint4_linear_1706_169" x1="58.6526" y1="26.8058" x2="58.6526" y2="4.11853" gradientUnits="userSpaceOnUse">
<stop stop-color="#00082E"/>
<stop offset="0.321" stop-color="#010A30"/>
<stop offset="0.501" stop-color="#030F39"/>
<stop offset="0.647" stop-color="#071846"/>
<stop offset="0.773" stop-color="#0D245A"/>
<stop offset="0.809" stop-color="#0F2961"/>
<stop offset="0.839" stop-color="#0B386E"/>
<stop offset="0.896" stop-color="#054E83"/>
<stop offset="0.951" stop-color="#015B90"/>
<stop offset="1" stop-color="#006094"/>
</linearGradient>
<linearGradient id="paint5_linear_1706_169" x1="60.0269" y1="26.7404" x2="60.0269" y2="4.16503" gradientUnits="userSpaceOnUse">
<stop stop-color="#00082E"/>
<stop offset="0.321" stop-color="#010A30"/>
<stop offset="0.501" stop-color="#030F39"/>
<stop offset="0.647" stop-color="#071846"/>
<stop offset="0.773" stop-color="#0D245A"/>
<stop offset="0.809" stop-color="#0F2961"/>
<stop offset="0.839" stop-color="#0B386E"/>
<stop offset="0.896" stop-color="#054E83"/>
<stop offset="0.951" stop-color="#015B90"/>
<stop offset="1" stop-color="#006094"/>
</linearGradient>
<linearGradient id="paint6_linear_1706_169" x1="47.6388" y1="26.8907" x2="47.6388" y2="4.00037" gradientUnits="userSpaceOnUse">
<stop stop-color="#00082E"/>
<stop offset="0.321" stop-color="#010A30"/>
<stop offset="0.501" stop-color="#030F39"/>
<stop offset="0.647" stop-color="#071846"/>
<stop offset="0.773" stop-color="#0D245A"/>
<stop offset="0.809" stop-color="#0F2961"/>
<stop offset="0.839" stop-color="#0B386E"/>
<stop offset="0.896" stop-color="#054E83"/>
<stop offset="0.951" stop-color="#015B90"/>
<stop offset="1" stop-color="#006094"/>
</linearGradient>
<linearGradient id="paint7_linear_1706_169" x1="56.5465" y1="26.8379" x2="56.5465" y2="4.03679" gradientUnits="userSpaceOnUse">
<stop stop-color="#00082E"/>
<stop offset="0.321" stop-color="#010A30"/>
<stop offset="0.501" stop-color="#030F39"/>
<stop offset="0.647" stop-color="#071846"/>
<stop offset="0.773" stop-color="#0D245A"/>
<stop offset="0.809" stop-color="#0F2961"/>
<stop offset="0.839" stop-color="#0B386E"/>
<stop offset="0.896" stop-color="#054E83"/>
<stop offset="0.951" stop-color="#015B90"/>
<stop offset="1" stop-color="#006094"/>
</linearGradient>
<linearGradient id="paint8_linear_1706_169" x1="37.1459" y1="26.8212" x2="37.1459" y2="4.04406" gradientUnits="userSpaceOnUse">
<stop stop-color="#00082E"/>
<stop offset="0.321" stop-color="#010A30"/>
<stop offset="0.501" stop-color="#030F39"/>
<stop offset="0.647" stop-color="#071846"/>
<stop offset="0.773" stop-color="#0D245A"/>
<stop offset="0.809" stop-color="#0F2961"/>
<stop offset="0.839" stop-color="#0B386E"/>
<stop offset="0.896" stop-color="#054E83"/>
<stop offset="0.951" stop-color="#015B90"/>
<stop offset="1" stop-color="#006094"/>
</linearGradient>
<linearGradient id="paint9_linear_1706_169" x1="46.8277" y1="26.8384" x2="46.8277" y2="4.02021" gradientUnits="userSpaceOnUse">
<stop stop-color="#00082E"/>
<stop offset="0.321" stop-color="#010A30"/>
<stop offset="0.501" stop-color="#030F39"/>
<stop offset="0.647" stop-color="#071846"/>
<stop offset="0.773" stop-color="#0D245A"/>
<stop offset="0.809" stop-color="#0F2961"/>
<stop offset="0.839" stop-color="#0B386E"/>
<stop offset="0.896" stop-color="#054E83"/>
<stop offset="0.951" stop-color="#015B90"/>
<stop offset="1" stop-color="#006094"/>
</linearGradient>
<linearGradient id="paint10_linear_1706_169" x1="58.7003" y1="26.8925" x2="58.7003" y2="3.90212" gradientUnits="userSpaceOnUse">
<stop stop-color="#00082E"/>
<stop offset="0.321" stop-color="#010A30"/>
<stop offset="0.501" stop-color="#030F39"/>
<stop offset="0.647" stop-color="#071846"/>
<stop offset="0.773" stop-color="#0D245A"/>
<stop offset="0.809" stop-color="#0F2961"/>
<stop offset="0.839" stop-color="#0B386E"/>
<stop offset="0.896" stop-color="#054E83"/>
<stop offset="0.951" stop-color="#015B90"/>
<stop offset="1" stop-color="#006094"/>
</linearGradient>
<linearGradient id="paint11_linear_1706_169" x1="51.0767" y1="26.9131" x2="51.0767" y2="3.98048" gradientUnits="userSpaceOnUse">
<stop stop-color="#00082E"/>
<stop offset="0.321" stop-color="#010A30"/>
<stop offset="0.501" stop-color="#030F39"/>
<stop offset="0.647" stop-color="#071846"/>
<stop offset="0.773" stop-color="#0D245A"/>
<stop offset="0.809" stop-color="#0F2961"/>
<stop offset="0.839" stop-color="#0B386E"/>
<stop offset="0.896" stop-color="#054E83"/>
<stop offset="0.951" stop-color="#015B90"/>
<stop offset="1" stop-color="#006094"/>
</linearGradient>
<linearGradient id="paint12_linear_1706_169" x1="63.3053" y1="26.8454" x2="63.3053" y2="4.06236" gradientUnits="userSpaceOnUse">
<stop stop-color="#00082E"/>
<stop offset="0.321" stop-color="#010A30"/>
<stop offset="0.501" stop-color="#030F39"/>
<stop offset="0.647" stop-color="#071846"/>
<stop offset="0.773" stop-color="#0D245A"/>
<stop offset="0.809" stop-color="#0F2961"/>
<stop offset="0.839" stop-color="#0B386E"/>
<stop offset="0.896" stop-color="#054E83"/>
<stop offset="0.951" stop-color="#015B90"/>
<stop offset="1" stop-color="#006094"/>
</linearGradient>
<linearGradient id="paint13_linear_1706_169" x1="41.661" y1="26.8584" x2="41.661" y2="4.01497" gradientUnits="userSpaceOnUse">
<stop stop-color="#00082E"/>
<stop offset="0.321" stop-color="#010A30"/>
<stop offset="0.501" stop-color="#030F39"/>
<stop offset="0.647" stop-color="#071846"/>
<stop offset="0.773" stop-color="#0D245A"/>
<stop offset="0.809" stop-color="#0F2961"/>
<stop offset="0.839" stop-color="#0B386E"/>
<stop offset="0.896" stop-color="#054E83"/>
<stop offset="0.951" stop-color="#015B90"/>
<stop offset="1" stop-color="#006094"/>
</linearGradient>
<linearGradient id="paint14_linear_1706_169" x1="38.1601" y1="26.8415" x2="38.1601" y2="4.05543" gradientUnits="userSpaceOnUse">
<stop stop-color="#00082E"/>
<stop offset="0.321" stop-color="#010A30"/>
<stop offset="0.501" stop-color="#030F39"/>
<stop offset="0.647" stop-color="#071846"/>
<stop offset="0.773" stop-color="#0D245A"/>
<stop offset="0.809" stop-color="#0F2961"/>
<stop offset="0.839" stop-color="#0B386E"/>
<stop offset="0.896" stop-color="#054E83"/>
<stop offset="0.951" stop-color="#015B90"/>
<stop offset="1" stop-color="#006094"/>
</linearGradient>
<linearGradient id="paint15_linear_1706_169" x1="21.2333" y1="26.8487" x2="21.2333" y2="4.04662" gradientUnits="userSpaceOnUse">
<stop stop-color="#00082E"/>
<stop offset="0.321" stop-color="#010A30"/>
<stop offset="0.501" stop-color="#030F39"/>
<stop offset="0.647" stop-color="#071846"/>
<stop offset="0.773" stop-color="#0D245A"/>
<stop offset="0.809" stop-color="#0F2961"/>
<stop offset="0.839" stop-color="#0B386E"/>
<stop offset="0.896" stop-color="#054E83"/>
<stop offset="0.951" stop-color="#015B90"/>
<stop offset="1" stop-color="#006094"/>
</linearGradient>
<linearGradient id="paint16_linear_1706_169" x1="31.2756" y1="26.9783" x2="31.2756" y2="3.96023" gradientUnits="userSpaceOnUse">
<stop stop-color="#00082E"/>
<stop offset="0.321" stop-color="#010A30"/>
<stop offset="0.501" stop-color="#030F39"/>
<stop offset="0.647" stop-color="#071846"/>
<stop offset="0.773" stop-color="#0D245A"/>
<stop offset="0.809" stop-color="#0F2961"/>
<stop offset="0.839" stop-color="#0B386E"/>
<stop offset="0.896" stop-color="#054E83"/>
<stop offset="0.951" stop-color="#015B90"/>
<stop offset="1" stop-color="#006094"/>
</linearGradient>
<linearGradient id="paint17_linear_1706_169" x1="28.3483" y1="26.8444" x2="28.3483" y2="4.0367" gradientUnits="userSpaceOnUse">
<stop stop-color="#00082E"/>
<stop offset="0.321" stop-color="#010A30"/>
<stop offset="0.501" stop-color="#030F39"/>
<stop offset="0.647" stop-color="#071846"/>
<stop offset="0.773" stop-color="#0D245A"/>
<stop offset="0.809" stop-color="#0F2961"/>
<stop offset="0.839" stop-color="#0B386E"/>
<stop offset="0.896" stop-color="#054E83"/>
<stop offset="0.951" stop-color="#015B90"/>
<stop offset="1" stop-color="#006094"/>
</linearGradient>
<linearGradient id="paint18_linear_1706_169" x1="28.8868" y1="26.8979" x2="28.8868" y2="4.01075" gradientUnits="userSpaceOnUse">
<stop stop-color="#00082E"/>
<stop offset="0.321" stop-color="#010A30"/>
<stop offset="0.501" stop-color="#030F39"/>
<stop offset="0.647" stop-color="#071846"/>
<stop offset="0.773" stop-color="#0D245A"/>
<stop offset="0.809" stop-color="#0F2961"/>
<stop offset="0.839" stop-color="#0B386E"/>
<stop offset="0.896" stop-color="#054E83"/>
<stop offset="0.951" stop-color="#015B90"/>
<stop offset="1" stop-color="#006094"/>
</linearGradient>
<linearGradient id="paint19_linear_1706_169" x1="44.1498" y1="26.8586" x2="44.1498" y2="4.03506" gradientUnits="userSpaceOnUse">
<stop stop-color="#00082E"/>
<stop offset="0.321" stop-color="#010A30"/>
<stop offset="0.501" stop-color="#030F39"/>
<stop offset="0.647" stop-color="#071846"/>
<stop offset="0.773" stop-color="#0D245A"/>
<stop offset="0.809" stop-color="#0F2961"/>
<stop offset="0.839" stop-color="#0B386E"/>
<stop offset="0.896" stop-color="#054E83"/>
<stop offset="0.951" stop-color="#015B90"/>
<stop offset="1" stop-color="#006094"/>
</linearGradient>
<linearGradient id="paint20_linear_1706_169" x1="38.3165" y1="26.8646" x2="38.3165" y2="4.03138" gradientUnits="userSpaceOnUse">
<stop stop-color="#00082E"/>
<stop offset="0.321" stop-color="#010A30"/>
<stop offset="0.501" stop-color="#030F39"/>
<stop offset="0.647" stop-color="#071846"/>
<stop offset="0.773" stop-color="#0D245A"/>
<stop offset="0.809" stop-color="#0F2961"/>
<stop offset="0.839" stop-color="#0B386E"/>
<stop offset="0.896" stop-color="#054E83"/>
<stop offset="0.951" stop-color="#015B90"/>
<stop offset="1" stop-color="#006094"/>
</linearGradient>
<linearGradient id="paint21_linear_1706_169" x1="39.0549" y1="26.8457" x2="39.0549" y2="4.04734" gradientUnits="userSpaceOnUse">
<stop stop-color="#00082E"/>
<stop offset="0.321" stop-color="#010A30"/>
<stop offset="0.501" stop-color="#030F39"/>
<stop offset="0.647" stop-color="#071846"/>
<stop offset="0.773" stop-color="#0D245A"/>
<stop offset="0.809" stop-color="#0F2961"/>
<stop offset="0.839" stop-color="#0B386E"/>
<stop offset="0.896" stop-color="#054E83"/>
<stop offset="0.951" stop-color="#015B90"/>
<stop offset="1" stop-color="#006094"/>
</linearGradient>
<linearGradient id="paint22_linear_1706_169" x1="26.8104" y1="26.8912" x2="26.8104" y2="4.03877" gradientUnits="userSpaceOnUse">
<stop stop-color="#00082E"/>
<stop offset="0.321" stop-color="#010A30"/>
<stop offset="0.501" stop-color="#030F39"/>
<stop offset="0.647" stop-color="#071846"/>
<stop offset="0.773" stop-color="#0D245A"/>
<stop offset="0.809" stop-color="#0F2961"/>
<stop offset="0.839" stop-color="#0B386E"/>
<stop offset="0.896" stop-color="#054E83"/>
<stop offset="0.951" stop-color="#015B90"/>
<stop offset="1" stop-color="#006094"/>
</linearGradient>
<linearGradient id="paint23_linear_1706_169" x1="32.803" y1="39.6581" x2="22.8017" y2="2.93571" gradientUnits="userSpaceOnUse">
<stop stop-color="#A5A5A6"/>
<stop offset="0.35" stop-color="#D7D7D7"/>
<stop offset="0.65" stop-color="#D7D7D7"/>
<stop offset="1" stop-color="#A5A5A6"/>
</linearGradient>
<linearGradient id="paint24_linear_1706_169" x1="58.2558" y1="19.309" x2="48.2764" y2="-17.3327" gradientUnits="userSpaceOnUse">
<stop stop-color="#A5A5A6"/>
<stop offset="0.35" stop-color="#D7D7D7"/>
<stop offset="0.65" stop-color="#D7D7D7"/>
<stop offset="1" stop-color="#A5A5A6"/>
</linearGradient>
<clipPath id="clip0_1706_169">
<rect width="84" height="32" fill="white"/>
</clipPath>
</defs>
</svg>
