<svg width="64" height="48" viewBox="0 0 64 48" fill="none" xmlns="http://www.w3.org/2000/svg">
<path fill-rule="evenodd" clip-rule="evenodd" d="M29.7373 34.7742L13.6274 36.4089L16.8078 39.337H39.6147L31.1593 34.6269L29.7373 34.7742ZM29.7373 22.6459L51.924 17.0575C51.924 17.0575 55.1564 16.8379 58.3627 9.98081L29.7373 18.8391L7.47289 25.696C7.47289 25.696 5.55925 26.2816 4.8094 26.7697C4.8094 26.7697 4.29216 27.0628 4.29216 27.7456C4.29216 27.7456 4.34382 28.2582 4.73175 28.6246L5.68856 29.5276L17.8419 26.5502C17.8419 26.5502 17.092 25.6227 18.5917 25.4277L29.7373 22.6459ZM29.7373 33.5781C29.7629 33.8221 29.9699 34.0423 29.9699 34.0423L29.7373 34.0662L12.8515 35.8721L9.6448 33.0415L29.7369 29.6493L46.9066 26.7697C44.0885 31.9924 38.3993 31.9924 38.3993 31.9924L31.3143 32.8462C30.1249 32.8708 29.7889 33.1632 29.7369 33.4567L29.7373 33.5781ZM29.7373 24.549L53.1394 18.9612C50.3726 24.8666 44.813 25.0616 44.813 25.0616L29.7373 27.9412L24.7982 28.8926C22.419 28.9417 23.4535 30.0887 23.4535 30.0887L9.05025 32.4072L6.36111 30.1619L29.7373 24.549ZM29.7373 12.6164L62.4486 0C62.4486 0 61.3362 3.09945 60.638 4.68549C60.638 4.68549 59.7848 7.19902 56.3718 8.19945L29.7373 17.0823L6.64538 24.7446C6.64538 24.7446 3.67196 25.7454 3.18038 26.9169C3.18038 26.9169 2.48218 28.2586 4.37016 29.772L15.515 39.3376H11.1452L2.17225 31.0407C2.17225 31.0407 0.155307 29.4788 0 27.2581V26.7945C0.0259986 26.6483 0.0259986 26.5021 0.0776537 26.331C0.0776537 26.331 0.46558 23.8904 4.34416 22.4022L29.7373 12.6164ZM5.94718 40.8991H0.155307V42.2414H1.47371V46.3165H0.155307V47.7075H5.94718V46.3165H4.52512V45.0232H8.79197V46.3165H7.39558V47.7075H13.1105V46.3165H11.7401V42.2414H13.1105V40.8991H7.36958V42.2414H8.79197V43.5831H4.52512V42.2414H5.94718V40.8991ZM56.8114 44.0473H57.9232L56.8114 42.461L56.6817 42.3147L55.6736 44.0473H56.8114ZM56.8114 40.8991H59.1126L62.5776 46.3165H64V47.7075H57.7675V46.3165H59.1639L58.5694 45.5113H54.7944L54.3289 46.3165H55.6993V47.7075H50.8899V46.3165H52.3639L54.7424 42.2414H53.1394V40.8991H56.8114ZM45.7179 46.2432C47.0883 46.0969 47.8901 45.6088 47.8901 44.3398C47.8901 42.8758 46.9853 42.4122 45.7179 42.2899C45.4852 42.2653 45.2523 42.2653 44.9943 42.2653H43.5459V46.2919H44.7097C45.0717 46.2919 45.4076 46.2677 45.7179 46.2432ZM45.7179 40.8991H46.6487C49.0279 40.8991 50.8125 41.9483 50.8125 44.3398C50.8125 47.0971 49.1315 47.6588 45.7179 47.7075H39.2274V46.3165H40.6238V42.2414H39.2274V40.8991H45.7179ZM19.187 46.5605C20.5317 46.536 21.5918 45.5359 21.5918 44.3153C21.5918 43.022 20.5057 42.0461 19.187 42.0461H19.161C17.8422 42.0461 16.7821 43.022 16.7821 44.2914C16.7821 45.4868 17.7906 46.5605 19.1353 46.5605H19.187ZM19.187 40.5573H19.2646C22.652 40.5573 24.8759 41.7533 24.8759 44.2181C24.8759 46.4872 22.8329 48 19.187 48H19.0837C15.541 48 13.4204 46.7068 13.4204 44.2668C13.4204 41.9241 15.515 40.5573 19.187 40.5573ZM31.056 40.8991H25.3415V42.2414H26.7119V46.3165H25.3415V47.7075H29.8926V46.3165H28.4702V42.827L32.4784 47.7072H36.9002V42.2411H38.3479V40.8988H33.6415V42.2411H35.1156V45.828L31.056 40.8991Z" fill="black"/>
</svg>
