<svg width="56" height="56" viewBox="0 0 56 56" fill="none" xmlns="http://www.w3.org/2000/svg">
<path fill-rule="evenodd" clip-rule="evenodd" d="M56 27.9999L55.8878 25.5711L55.5726 23.1418L55.0335 20.755L54.3058 18.4238L53.368 16.1771L52.248 14.0138L50.925 11.956L49.4481 10.0169L47.7889 8.21111L45.9825 6.55225L44.0441 5.07507L42 3.75205L39.823 2.63197L37.5757 1.69389L35.2449 0.965925L32.8577 0.427138L30.4287 0.111948L28 0L25.5641 0.111948L23.1279 0.427138L20.748 0.965925L18.4171 1.69389L16.1632 2.63197L14 3.75205L11.9421 5.07507L10.0031 6.55225L8.20418 8.21111L6.54503 10.0169L5.06816 11.956L3.74515 13.9998L2.62508 16.1771L1.68011 18.4238L0.952151 20.755L0.420251 23.1418L0.105362 25.5711L0 27.9999L0.105362 30.4358L0.420251 32.872L0.952151 35.2447L1.68011 37.5831L2.62508 39.837L3.74515 41.9996L5.06816 44.0578L6.54503 45.9968L8.20418 47.7961L9.99594 49.4549L11.9421 50.9318L13.9931 52.2548L16.1632 53.3746L18.4171 54.3199L20.748 55.0475L23.1279 55.5798L25.5641 55.8946L27.9931 56L30.4287 55.8946L32.8577 55.5798L35.2308 55.0475L37.5616 54.3199L39.823 53.3746L41.9862 52.2548L44.0441 50.9318L45.9825 49.4549L47.7889 47.7961L49.4481 46.0037L50.925 44.0578L52.248 42.0068L53.368 39.837L54.3058 37.5831L55.0335 35.2516L55.5726 32.872L55.8878 30.4358L56 27.9999Z" fill="#FDE62F"/>
<path fill-rule="evenodd" clip-rule="evenodd" d="M46.7107 28.3987L46.6335 26.7048L46.3955 25.0247L46.0172 23.3796L45.4922 21.763L44.8064 20.2089L43.9875 18.7179L43.0491 17.3039L41.9712 15.9947L40.7886 14.7767L39.5006 13.6779L38.1073 12.7048L36.6448 11.8508L35.0979 11.1369L33.5087 10.5769L31.8637 10.1497L30.1835 9.88362L28.49 9.77197L27.6426 9.77886V47.0117L28.49 47.0396L30.1835 46.9135L31.8637 46.6477L33.5087 46.2278L35.0979 45.6609L36.6448 44.9538L38.1073 44.0999L39.5006 43.1199L40.7886 42.0208L41.9712 40.8097L43.0491 39.4867L43.9875 38.0867L44.8064 36.5958L45.4922 35.0417L46.0172 33.4316L46.3955 31.7724L46.6335 30.0929L46.7107 28.3987Z" fill="#505E86"/>
<path fill-rule="evenodd" clip-rule="evenodd" d="M30.4704 26.3339L30.1483 26.817L29.8541 27.4399L29.6792 28.1118L29.6233 28.8048L29.6792 29.498L29.8541 30.17L30.1483 30.7998L30.5404 31.3811L31.0232 31.8711L31.5904 32.277L32.2067 32.5919L32.6896 32.7248L32.4866 32.767L31.9822 33.0262L31.5345 33.3758L31.163 33.7961L30.8837 34.2926L30.7152 34.832L30.6598 35.3989L30.7152 35.959L30.8837 36.4981L31.163 36.9881L31.5345 37.429L31.9822 37.7717L32.4866 38.024L33.0392 38.1638L33.5711 38.1919H33.9213L33.8512 38.2198L33.5292 38.514L33.2846 38.8849L33.1373 39.298L33.0811 39.7248L33.1373 40.1591L33.2846 40.5719L33.5292 40.9428L33.8512 41.237L34.2433 41.4399L34.6702 41.5516L35.0626 41.5591H36.6514V41.5731L35.916 43.106L37.2671 42.0841L37.4285 41.9862L37.7715 41.727L38.1211 41.4121L38.324 41.055L38.4153 40.8239L38.4435 40.586L38.4363 40.348L38.3591 40.1382L38.2474 39.9349L38.6461 39.823L39.0176 39.6548L39.339 39.3958L39.6195 39.095L39.8225 38.7379L39.9904 38.2761L40.0463 37.7998L39.9904 37.317L39.8225 36.848L39.5635 36.4418L39.2202 36.0919L38.8631 35.847L39.4091 35.8398L39.9832 35.7348L40.5292 35.5318L41.0332 35.2517L41.481 34.888L41.8734 34.4609L42.1883 33.978L42.4122 33.439L42.5592 32.8789L42.6011 32.312L42.5592 31.7238L42.4122 31.1638L42.1883 30.6319L41.8734 30.1491L41.481 29.7219L41.0332 29.3511L40.5292 29.0709L40.0604 28.903L40.3756 28.847L40.9982 28.6578L41.5933 28.3567L42.0201 27.9999L42.5457 27.524L42.9722 26.9499L43.3156 26.3339L43.5535 25.6759L43.7002 25.004L43.7915 24.3948L43.8124 23.7788L43.7634 23.1631L43.6652 22.5399L43.5113 21.9239L43.2874 21.3151L43.0145 20.7478L42.6993 20.195L42.3422 19.6559L41.9503 19.1518L41.516 18.6972L40.7953 17.9761L39.8156 19.089H35.7343L35.5313 19.3898L35.3425 19.705L35.2865 19.8798H33.0673L33.0811 19.684L32.4516 19.3898L32.1505 19.2081L31.8706 19.012L31.6671 18.8651L31.4572 18.7181L31.2474 18.6199L30.9954 18.5149L30.6521 18.4939L30.3165 18.5502L30.0154 18.6831L29.7355 18.9001L29.5395 19.1871L29.4413 19.523L29.4625 19.8798L29.5951 20.209L29.819 20.4748L30.1483 20.6781L30.4491 20.811L30.2465 20.7691L29.8472 20.776L29.4625 20.881L29.1051 21.0702L28.8112 21.336L28.5873 21.6719L28.4475 22.043L28.3984 22.4489L28.4544 22.841L28.5873 23.2191L28.8112 23.548L29.1192 23.8141L29.4763 24.003L29.8541 24.1081L30.2605 24.115L30.3791 24.0799L30.0366 24.332L29.7565 24.71L29.6233 25.0111L29.5748 25.3679L29.6652 25.7178L29.8681 26.0118L30.1483 26.2219L30.4704 26.3339Z" fill="black"/>
<path fill-rule="evenodd" clip-rule="evenodd" d="M33.7754 22.3995L33.397 22.0987L33.0959 21.7416L32.8579 21.3285L32.7044 20.8667L32.6481 20.3976L32.6762 19.9286L32.2769 19.7397L31.9414 19.5437L31.6403 19.3338L31.4439 19.1797L31.2691 19.0677L31.0871 18.9764L30.9123 18.9067L30.6606 18.8857L30.4289 18.9276L30.2122 19.0186L30.0233 19.1656L29.9039 19.3548L29.8345 19.5718L29.8479 19.7957L29.932 19.9918L30.0934 20.1737L30.3245 20.3276L30.9399 20.5868L31.3041 20.7125L31.3673 20.9786L31.4158 21.2516L31.4439 21.5318L31.458 21.7976H31.1988L31.024 21.5527L30.7863 21.3636L30.5061 21.2238L30.2122 21.1606L29.9039 21.1678L29.61 21.2516L29.3439 21.3917L29.1059 21.5946L28.9383 21.8539L28.8401 22.1478L28.791 22.4486L28.8401 22.7497L28.9524 23.0437L29.12 23.2888L29.3439 23.4915L29.61 23.6316L29.9111 23.7157L30.2122 23.7228L30.5202 23.6597L30.8001 23.5127L31.0312 23.3235L31.2129 23.0718L31.458 23.0856L31.4439 23.4427L31.4023 23.7926L31.3323 24.0168L31.1428 24.1147L30.7091 24.3386L30.3173 24.6118L30.0934 24.9127L30.0021 25.1156L29.9811 25.3395L30.0374 25.5496L30.1559 25.7388L30.3245 25.8717L30.5412 25.9418L30.7651 25.9277L30.9749 25.8508L31.2482 25.6406L31.5702 25.3817L31.9273 25.1578L32.312 24.9755L32.7113 24.8567L32.6762 24.3386L32.7325 23.8836L32.8792 23.4427L33.1172 23.0437L33.4042 22.6938L33.7754 22.3995Z" fill="#FDE62F"/>
<path fill-rule="evenodd" clip-rule="evenodd" d="M40.8236 18.5499L39.9834 19.4808H35.9372L35.8608 19.5996L35.6995 19.8588L35.5807 20.2716H33.0675L33.0604 20.7547L33.1936 21.2025L33.4597 21.6087L33.8233 21.9095L34.2577 22.0987L34.7267 22.1547H35.9027V22.5396H34.7267L34.2577 22.6378L33.8443 22.8757L33.4878 23.1975L33.2358 23.6106L33.1166 24.0728L33.1026 24.5556H36.5325L36.6307 24.5978L36.7079 24.6537L36.7358 24.7798L36.7079 24.9127L36.6235 25.0318L36.4975 25.1156L36.3646 25.1366L36.1407 25.1437H33.5854L32.9559 25.2276L32.3536 25.3958L31.7936 25.6756L31.2755 26.0396L30.8418 26.4877L30.4847 27.0058L30.2255 27.58L30.0719 28.1747L30.0156 28.8045L30.0719 29.4274L30.2255 30.0368L30.4847 30.6037L30.8418 31.1219L31.2755 31.5697L31.7936 31.9408L32.3536 32.2204L32.9559 32.3955L33.5854 32.4659H38.4575L38.5691 32.4796L38.6676 32.5356L38.7376 32.6194L38.7586 32.732L38.7376 32.8364L38.6676 32.9346L38.5691 32.9906H33.5854L33.0954 33.0259L32.6194 33.1516L32.1851 33.3617L31.8077 33.6554L31.4925 34.0197L31.2545 34.4468L31.1079 34.9155L31.0516 35.3986L31.1079 35.8818L31.2545 36.3436L31.4925 36.7636L31.8077 37.1344L32.1851 37.4356L32.6194 37.6526L33.0954 37.7714L33.5854 37.7995H37.4841L37.5825 37.8067L37.6735 37.8627L37.7298 37.9396L37.7508 38.045L37.7298 38.1426L37.6735 38.2195L37.5825 38.2758L37.4841 38.2898H35.0628L34.7267 38.3036L34.3905 38.3808L34.0894 38.5485L33.8302 38.7798L33.6416 39.0597L33.5159 39.3887L33.4737 39.7245L33.5159 40.0675L33.6416 40.3965L33.8302 40.6764L34.0894 40.9077L34.3905 41.0754L34.7267 41.1598L35.0628 41.1667H36.7423L36.8896 41.2367L37.0013 41.3555L37.0435 41.5166V41.6707L36.9668 41.8174L37.0435 41.7614L37.2117 41.6635L37.5263 41.4256L37.8064 41.1667L37.9678 40.8868L38.0303 40.7186L38.0513 40.5438L38.0238 40.3618L37.9537 40.1936L37.8274 40.0466L37.6876 39.9487L37.5059 39.8927L37.3233 39.8784H35.4193L35.3771 39.8574L35.3358 39.8368L35.3008 39.7805L35.2867 39.7245L35.3008 39.6757L35.3358 39.6194L35.3771 39.5985L35.4193 39.5778H37.8624L38.2689 39.5356L38.6395 39.3955L38.9756 39.1854L39.2627 38.9056L39.4794 38.5694L39.5988 38.1917L39.6473 37.7995L39.5988 37.3937L39.4794 37.0225L39.2627 36.6866L38.9756 36.3996L38.6395 36.1826L38.2689 36.0637L37.8624 36.0147H34.1038L33.9987 36.0078L33.9215 35.9728L33.8443 35.9027L33.7958 35.8255L33.7883 35.7345L33.7958 35.6438L33.8443 35.5597L33.9215 35.5034L33.9987 35.4546H38.8634L39.3749 35.4477L39.8781 35.3567L40.3618 35.1748L40.8096 34.9296L41.2151 34.6075L41.5585 34.2226L41.8315 33.7886L42.0413 33.3195L42.1676 32.8158L42.2098 32.3117L42.1676 31.7939L42.0413 31.2895L41.8315 30.8208L41.5585 30.3796L41.2151 30.0015L40.8096 29.6866L40.3618 29.4274L39.8781 29.2526L39.3749 29.1619L38.8634 29.1475H33.9356L33.8443 29.1056L33.7677 29.0356L33.7186 28.9518L33.6976 28.8608L33.7186 28.7557L33.7677 28.6716L33.8443 28.6019L33.9356 28.5596H39.7036L40.2845 28.4687L40.8446 28.2867L41.3696 28.0206L41.7614 27.7126L42.2517 27.2507L42.6435 26.7397L42.9587 26.1656L43.1826 25.5637L43.3158 24.9336L43.3993 24.3598L43.4203 23.7785L43.3712 23.2116L43.2877 22.6168L43.1263 22.0358L42.9234 21.4758L42.6576 20.9226L42.3634 20.3976L42.0203 19.8936L41.6495 19.4107L41.2364 18.963L40.8236 18.5499ZM32.5003 18.5077H39.1714V17.8426H32.5003V18.5077ZM32.5003 17.7306H39.1714V17.0796H32.5003V17.7306ZM32.4659 16.9398H39.1504V16.2888H32.4659V16.9398ZM39.1854 15.3019L39.1645 15.1687L39.1154 15.0355L39.0388 14.9236L38.9406 14.8188L38.8149 14.7556L38.6814 14.7209L38.5488 14.7065L38.4156 14.7278L38.2758 14.7838L38.1635 14.8676L38.0794 14.9798L38.0238 15.0987L37.9887 15.2319V15.3785L38.0238 15.5117L38.0794 15.6377L38.1635 15.7356L38.2758 15.8266L38.4156 15.8826L38.5488 15.9035L38.6814 15.8967L38.8149 15.8616L38.9406 15.7847L39.0388 15.6937L39.1154 15.5677L39.1645 15.4486L39.1854 15.3019ZM37.7993 15.3019L37.7852 15.1687L37.7433 15.0355L37.6595 14.9236L37.5613 14.8188L37.4356 14.7556L37.3024 14.7209L37.1698 14.7065L37.0222 14.7278L36.9037 14.7838L36.7914 14.8676L36.7001 14.9798L36.6307 15.0987L36.6097 15.2319V15.3785L36.6307 15.5117L36.7001 15.6377L36.7914 15.7356L36.9037 15.8266L37.0222 15.8826L37.1698 15.9035L37.3024 15.8967L37.4356 15.8616L37.5613 15.7847L37.6595 15.6937L37.7433 15.5677L37.7852 15.4486L37.7993 15.3019ZM36.4209 15.3019L36.4062 15.1687L36.3505 15.0355L36.2874 14.9236L36.1823 14.8188L36.0635 14.7556L35.924 14.7209L35.7836 14.7065L35.6438 14.7278L35.5247 14.7838L35.4124 14.8676L35.3217 14.9798L35.2514 15.0987L35.2236 15.2319V15.3785L35.2514 15.5117L35.3217 15.6377L35.4124 15.7356L35.5247 15.8266L35.6438 15.8826L35.7836 15.9035L35.924 15.8967L36.0635 15.8616L36.1823 15.7847L36.2874 15.6937L36.3505 15.5677L36.4062 15.4486L36.4209 15.3019ZM35.0416 15.3019L35.0206 15.1687L34.9715 15.0355L34.8943 14.9236L34.7967 14.8188L34.6845 14.7556L34.5519 14.7209L34.4043 14.7065L34.2717 14.7278L34.1454 14.7838L34.0338 14.8676L33.9425 14.9798L33.8793 15.0987L33.8443 15.2319V15.3785L33.8793 15.5117L33.9425 15.6377L34.0338 15.7356L34.1454 15.8266L34.2717 15.8826L34.4043 15.9035L34.5519 15.8967L34.6845 15.8616L34.7967 15.7847L34.8943 15.6937L34.9715 15.5677L35.0206 15.4486L35.0416 15.3019ZM33.6626 15.3019L33.6416 15.1687L33.5994 15.0355L33.5159 14.9236L33.4177 14.8188L33.2914 14.7556L33.1585 14.7209L33.0259 14.7065L32.8927 14.7278L32.7598 14.7838L32.6476 14.8676L32.5566 14.9798L32.5003 15.0987L32.4659 15.2319V15.3785L32.5003 15.5117L32.5566 15.6377L32.6476 15.7356L32.7598 15.8266L32.8927 15.8826L33.0259 15.9035L33.1585 15.8967L33.2914 15.8616L33.4177 15.7847L33.5159 15.6937L33.5994 15.5677L33.6416 15.4486L33.6626 15.3019Z" fill="#FDE62F"/>
<path fill-rule="evenodd" clip-rule="evenodd" d="M34.1037 6.71296L34.2015 6.92309L34.3482 7.11196L34.5164 7.273L34.7053 7.4059L34.9292 7.49689L35.1531 7.56005L35.3917 7.57382L35.6227 7.55287L35.8466 7.49689L36.0633 7.39183L36.2522 7.25175L36.4207 7.08382L36.5533 6.88807L36.6515 6.67794L36.7213 6.45374L36.7563 6.21608V5.99188L36.7078 5.7611L36.6446 5.53691L36.5183 5.3199L36.3716 5.14479L36.1968 4.98375L35.9792 4.86492L35.7553 4.78799L35.5105 4.7389H35.2794L35.0414 4.78799L34.8316 4.87181L34.6281 4.99782L34.4464 5.15198L34.2919 5.34803L34.1593 5.57193L34.068 5.80301L34.0195 6.0269L33.9986 6.26487L34.0336 6.49595L34.1037 6.71296ZM28.0977 4.70388L28.2231 4.697L28.3423 4.64791L28.4545 4.57098L28.5458 4.45904L28.6155 4.32584L28.6575 4.15791V4.02501L28.6155 3.87804L28.5243 3.73107L28.4195 3.64008L28.3004 3.57692L28.1534 3.5419H28.0624L27.6215 3.52783L27.6074 4.697L28.0624 4.70388H28.0977Z" fill="black"/>
<path fill-rule="evenodd" clip-rule="evenodd" d="M54.8095 25.662L54.4943 23.3311L53.9903 21.035L53.2836 18.8089L52.3874 16.6319L51.3024 14.5531L50.9459 13.993L50.0356 12.5721L48.6075 10.71L47.0262 8.97425L46.7876 8.75724L45.2898 7.39201L43.4277 5.96393L41.4471 4.69688L39.3677 3.61182L37.1913 2.71594L35.3924 2.14213L34.9649 2.00923L32.6691 1.50517L30.3377 1.18998L28.0631 1.0918H28.0003L25.6485 1.18998L23.3245 1.50517L21.0356 2.00923L18.7957 2.71624L16.6256 3.61212L15.1485 4.38229L14.5396 4.69718L12.5584 5.96423L10.6966 7.38513L10.2348 7.81226L9.19879 8.75724L8.96083 8.97425L7.38579 10.71L5.95083 12.5721L5.27196 13.6291L4.68409 14.5531L3.59903 16.6319L2.70316 18.8089L1.99525 21.035L1.49119 23.3311L1.176 25.662L1.07812 28L1.176 30.3521L1.49119 32.6761L1.99525 34.9647L2.70226 37.2049L3.59814 39.3747L4.68319 41.461L5.27106 42.3775L5.94993 43.4416L7.37082 45.3037L8.95993 47.0398L9.1979 47.25L10.2339 48.1946L10.6957 48.6149L12.5575 50.0496L14.5387 51.3166L15.1476 51.6318L16.6247 52.4017L18.7948 53.2975L21.0278 54.0046L23.3239 54.5086L25.6479 54.8235L27.9928 54.9217L28.0625 54.9148L30.3371 54.8235L32.6685 54.5086L34.9503 54.0046L35.3918 53.8645L37.1907 53.2972L39.3671 52.4014L41.4465 51.3163L43.4271 50.0493L45.2892 48.6284L46.787 47.2565L47.0256 47.0392L48.6069 45.3031L50.035 43.441L50.9453 42.0201L51.3018 41.4604L52.3868 39.3741L53.283 37.2112L53.9897 34.971L54.4937 32.6752L54.8089 30.3512L54.9071 27.9991L54.8095 25.662ZM43.2389 7.2169L44.373 8.23222L43.3089 10.9202L45.8355 9.54836L46.9696 10.5562L44.2395 14.9662L43.1826 14.0281L44.9324 11.3611L42.0416 13.0062L41.4681 12.5021L42.6788 9.36607L40.3058 11.4521L39.2417 10.5002L43.2389 7.2169ZM32.6128 5.97111L32.6479 5.66999L32.711 5.37605L32.8227 5.07523L32.9559 4.78817L33.1376 4.51489L33.3405 4.27004L33.5644 4.0671L33.7958 3.89229L34.0547 3.73125L34.348 3.61901L34.6491 3.54208L34.9643 3.50017L35.3005 3.48611L35.3918 3.49299L35.6438 3.50706L35.9934 3.5771L36.3296 3.68905L36.6516 3.82195L36.9596 4.00394L37.2257 4.2L37.4637 4.41701L37.6735 4.66186L37.8552 4.92107L37.9956 5.2219L38.1004 5.53679L38.1635 5.85886L38.1776 6.18782L38.1635 6.52396L38.1004 6.84604L37.9956 7.14716L37.8765 7.42733L37.7298 7.70032L37.5475 7.9314L37.3236 8.16936L37.0716 8.3723L36.7914 8.54052L36.4834 8.67343L36.176 8.76442L35.8399 8.82039L35.5037 8.82728L35.3921 8.82039L35.1745 8.80633L34.853 8.75035L34.5378 8.65217L34.2157 8.52616L33.9005 8.35823L33.6204 8.16906L33.3824 7.95205L33.1726 7.72785L32.9909 7.47612L32.8364 7.19595L32.7248 6.90201L32.6476 6.58682L32.5985 6.27193L32.6128 5.97111ZM26.257 2.3801L28.0631 2.40105H28.1963L28.5669 2.422L28.8117 2.49204L29.0644 2.56897L29.2601 2.68122L29.4559 2.81412L29.6097 2.96827L29.7429 3.15026L29.8546 3.3532L29.9318 3.5774L29.9809 3.8013L29.9878 4.01142L29.9668 4.23562L29.9246 4.45981L29.8546 4.6418L29.7639 4.81661L29.6447 4.9986L29.4981 5.14557L29.3299 5.2644L29.141 5.36946L28.9593 5.43232L30.5484 7.53928L28.8683 7.51833L27.5875 5.61431L27.5665 7.49737L26.2013 7.4836L26.257 2.3801ZM13.489 6.92327L18.1019 9.8842L16.9259 10.7313L16.1 10.1922L14.56 11.3123L14.8402 12.2573L13.6782 13.0972L12.1872 7.86824L13.489 6.92327ZM9.28919 10.4861L10.1294 11.1932L9.10032 12.4252L9.72351 12.9502L10.5984 11.9073L11.4734 12.6353L10.6125 13.6644L12.1875 14.9874L11.2917 16.0656L7.36453 12.7966L9.28919 10.4861ZM4.84422 17.1081L8.35829 18.7742L9.03027 17.3742L9.1982 17.4583L10.1153 17.8993L8.84829 20.5662L4.2354 18.3683L4.84422 17.1081ZM7.84016 24.0591L6.88831 24.2833L6.63628 26.1663L7.49714 26.6144L7.30826 28.0284L2.49932 25.4803L2.71633 23.9052L8.0431 22.6172L7.84016 24.0591ZM47.7889 30.0441L47.5644 31.738L47.2079 33.4037L46.7876 34.7618L46.7041 35.0279L46.0528 36.6098L45.2758 38.122L44.373 39.5639L43.3511 40.9357L42.2101 42.1958L40.9637 43.3647L39.6203 44.4147L38.1991 45.3597L36.7007 46.1646L35.3924 46.7318L35.1403 46.8369L33.5297 47.3829L31.8711 47.775L30.1838 48.0339L28.4762 48.1458L28.0631 48.139L26.7823 48.1108L25.0881 47.922L23.4221 47.5999L21.7842 47.1239L20.1882 46.5217L18.6622 45.7725L17.1922 44.8976L15.8204 43.9038L15.1482 43.3297L14.5184 42.7906L13.3283 41.5729L12.2432 40.2637L11.2842 38.8637L10.444 37.3728L10.2342 36.9247L9.72321 35.8259L9.1982 34.3487L9.15629 34.2227L8.71538 32.5779L8.42833 30.8978L8.28136 29.1967V27.4956L8.42833 25.8086L8.71538 24.1285L9.15629 22.4834L9.1982 22.3574L9.72321 20.8665L10.2342 19.7676L10.444 19.3196L11.2842 17.8424L12.2432 16.4352L13.3283 15.1194L14.5184 13.9015L15.1482 13.3696L15.8204 12.7954L17.1922 11.7945L18.6622 10.9196L20.1954 10.1844L21.7845 9.56841L23.4224 9.09937L25.0884 8.77041L26.7826 8.5953L28.0634 8.56716L28.4765 8.56028L30.1841 8.65816L31.8714 8.91708L33.53 9.32296L35.1406 9.85487L35.3927 9.96681L36.701 10.5406L38.1994 11.3455L39.6341 12.2764L40.964 13.3264L42.2104 14.5025L43.3514 15.7695L44.3733 17.1276L45.2761 18.5694L46.0531 20.0954L46.7044 21.6633L46.7879 21.9363L47.2082 23.2943L47.5647 24.9532L47.7892 26.6471L47.8523 28.3412L47.7889 30.0441ZM48.1597 19.6841L47.1028 20.2092L45.7173 17.4512L50.2879 15.155L51.66 17.899L50.6872 18.3961L49.9383 16.8911L49.196 17.2761L49.8261 18.5293L48.8323 19.0334L48.1882 17.7804L47.3971 18.1794L48.1597 19.6841ZM53.5637 25.4381L53.5075 25.7742L53.4234 26.0753L53.2976 26.3693L53.1432 26.6491L52.9403 26.9084L52.7023 27.1391L52.4362 27.3421L52.156 27.4962L51.8408 27.6363L51.5262 27.7204L51.2042 27.7695L50.9453 27.7764H50.9031L50.5951 27.7695L50.2939 27.7133L50.0069 27.6082L49.6995 27.4681L49.4187 27.3002L49.1739 27.0832L48.95 26.8383L48.7611 26.5582L48.6066 26.2642L48.4669 25.9634L48.3827 25.6482L48.3271 25.3261L48.2989 24.9762L48.313 24.6332L48.3546 24.2833L48.4459 23.9822L48.5581 23.6882L48.7048 23.4221L48.8871 23.156L49.0969 22.9181L49.3418 22.7079L49.6148 22.54L49.8809 22.3999L50.1748 22.302L50.4613 22.232L50.7764 22.2039H51.0985L51.4278 22.232L51.7289 22.3158L52.0091 22.414L52.2752 22.5469L52.5272 22.7148L52.758 22.9178L52.975 23.1629L53.1498 23.4359L53.3111 23.7229L53.4297 24.0519L53.5209 24.388L53.5772 24.7311L53.5913 25.0879L53.5637 25.4381Z" fill="black"/>
<path fill-rule="evenodd" clip-rule="evenodd" d="M52.2696 24.4721L52.1643 24.2479L52.0248 24.0731L51.8422 23.9121L51.6395 23.793L51.4294 23.7023L51.1914 23.646L50.9466 23.625H50.9256L50.6805 23.646L50.456 23.7023L50.2393 23.793L50.0364 23.9121L49.8687 24.0731L49.7352 24.262L49.6236 24.4721L49.5604 24.696L49.5254 24.9199L49.5323 25.1582L49.5817 25.3962L49.6727 25.606L49.7915 25.8092L49.9522 25.9843L50.1417 26.131L50.3444 26.243L50.5683 26.313L50.7993 26.348H51.0373L51.2687 26.313L51.4851 26.243L51.6955 26.131L51.8844 25.9981L52.052 25.8299L52.1924 25.6272L52.2906 25.4171L52.3462 25.1791L52.3672 24.9481L52.3322 24.7101L52.2696 24.4721ZM3.91406 24.8571L5.64984 25.6973L5.8037 24.5003L3.91406 24.8571ZM15.1486 9.6109L15.2046 9.569L15.1486 9.52709L13.6367 8.44922L14.2246 10.276L15.1486 9.6109Z" fill="black"/>
<path fill-rule="evenodd" clip-rule="evenodd" d="M16.5752 25.025V13.6431L15.9173 14.1681L14.6712 15.3229L13.5442 16.59L12.5364 17.9549L11.6474 19.4108L10.8982 20.9371L10.2963 22.5121L9.84818 24.1501L9.68714 25.025H16.5752ZM16.5752 30.4359H9.40039L9.47732 30.8843L9.77844 32.5572L10.2403 34.188L10.8422 35.784L11.5843 37.303L12.4661 38.7521L13.4742 40.1173L14.6083 41.384L15.8472 42.5463L16.5752 43.0642V30.4359ZM21.7625 30.4359V46.0392L23.3863 46.536L25.0452 46.8791L26.725 47.0682V30.4362L21.7625 30.4359ZM21.7625 25.025H26.7253V9.72314L25.0455 9.91202L23.3866 10.2619L21.7628 10.7519L21.7625 25.025Z" fill="white"/>
<path fill-rule="evenodd" clip-rule="evenodd" d="M18.6064 12.2988L17.3043 13.1037V25.9068H9.4647L9.36652 26.8377L9.32432 27.7686L9.31055 28.6926L9.35245 29.6238H17.3043V43.6655L18.1373 44.2815L19.0194 44.8206L19.9503 45.2896L20.9585 45.738V29.6238H26.7264V25.9068H20.9585V11.1997L20.1183 11.5149L18.6064 12.2988Z" fill="#B44533"/>
</svg>
