<svg width="93" height="57" viewBox="0 0 93 57" fill="none" xmlns="http://www.w3.org/2000/svg">
<g clip-path="url(#clip0_1626_2441)">
<path d="M1.94584 40V35.4125L11.572 26.9848C12.2936 26.3319 12.9078 25.7348 13.4147 25.1936C13.9216 24.6437 14.3082 24.0939 14.5745 23.5441C14.8408 22.9857 14.974 22.38 14.974 21.7271C14.974 20.9969 14.815 20.3741 14.4972 19.8586C14.1793 19.3346 13.7412 18.9308 13.1828 18.6473C12.6243 18.3638 11.9843 18.222 11.2627 18.222C10.5325 18.222 9.89243 18.3724 9.34261 18.6731C8.7928 18.9652 8.36325 19.3904 8.05398 19.9488C7.7533 20.5072 7.60296 21.1859 7.60296 21.9849H1.55925C1.55925 20.1894 1.96302 18.6387 2.77057 17.3329C3.57811 16.0271 4.71211 15.0219 6.17257 14.3175C7.64161 13.6044 9.34691 13.2479 11.2885 13.2479C13.2901 13.2479 15.0298 13.583 16.5074 14.253C17.9851 14.9231 19.1277 15.8595 19.9352 17.0623C20.7513 18.2564 21.1594 19.6438 21.1594 21.2246C21.1594 22.2297 20.9575 23.2262 20.5538 24.2142C20.15 25.2022 19.424 26.2932 18.376 27.4873C17.3365 28.6815 15.8588 30.1119 13.943 31.7785L10.7859 34.6908V34.8583H21.4816V40H1.94584ZM71.0461 40V35.4125L80.6723 26.9848C81.3939 26.3319 82.0081 25.7348 82.515 25.1936C83.0219 24.6437 83.4085 24.0939 83.6748 23.5441C83.9411 22.9857 84.0743 22.38 84.0743 21.7271C84.0743 20.9969 83.9153 20.3741 83.5975 19.8586C83.2796 19.3346 82.8415 18.9308 82.283 18.6473C81.7246 18.3638 81.0846 18.222 80.363 18.222C79.6328 18.222 78.9927 18.3724 78.4429 18.6731C77.8931 18.9652 77.4635 19.3904 77.1543 19.9488C76.8536 20.5072 76.7033 21.1859 76.7033 21.9849H70.6595C70.6595 20.1894 71.0633 18.6387 71.8709 17.3329C72.6784 16.0271 73.8124 15.0219 75.2729 14.3175C76.7419 13.6044 78.4472 13.2479 80.3888 13.2479C82.3904 13.2479 84.1301 13.583 85.6077 14.253C87.0854 14.9231 88.228 15.8595 89.0355 17.0623C89.8516 18.2564 90.2597 19.6438 90.2597 21.2246C90.2597 22.2297 90.0578 23.2262 89.654 24.2142C89.2503 25.2022 88.5243 26.2932 87.4763 27.4873C86.4368 28.6815 84.9591 30.1119 83.0433 31.7785L79.8862 34.6908V34.8583H90.5819V40H71.0461Z" fill="#F2F2F2"/>
<path d="M26.9788 6.06836H37.1351L45.7506 27.0768H46.1482L54.7637 6.06836H64.92V40H56.9341V19.1572H56.6525L48.5009 39.7846H43.3979L35.2464 19.0412H34.9647V40H26.9788V6.06836Z" fill="#F03B3B"/>
<path d="M2.14666 54H0.318537L3.64702 44.5455H5.76136L9.09446 54H7.26634L4.74112 46.4844H4.66726L2.14666 54ZM2.20668 50.293H7.19247V51.6687H2.20668V50.293ZM16.2996 44.5455H18.0123V50.7223C18.0123 51.3994 17.8523 51.9949 17.5322 52.5089C17.2152 53.0228 16.769 53.4245 16.1934 53.7138C15.6179 54 14.9455 54.1431 14.176 54.1431C13.4036 54.1431 12.7296 54 12.154 53.7138C11.5785 53.4245 11.1323 53.0228 10.8153 52.5089C10.4983 51.9949 10.3398 51.3994 10.3398 50.7223V44.5455H12.0525V50.5792C12.0525 50.9731 12.1386 51.324 12.311 51.6317C12.4864 51.9395 12.7326 52.1811 13.0496 52.3565C13.3666 52.5289 13.7421 52.6151 14.176 52.6151C14.61 52.6151 14.9855 52.5289 15.3025 52.3565C15.6225 52.1811 15.8688 51.9395 16.0411 51.6317C16.2135 51.324 16.2996 50.9731 16.2996 50.5792V44.5455ZM19.4585 45.9812V44.5455H27.0018V45.9812H24.0795V54H22.3807V45.9812H19.4585ZM36.4852 49.2727C36.4852 50.2914 36.2944 51.1639 35.9127 51.8903C35.5342 52.6135 35.0171 53.1675 34.3616 53.5522C33.7091 53.9369 32.969 54.1293 32.1411 54.1293C31.3132 54.1293 30.5715 53.9369 29.9159 53.5522C29.2635 53.1644 28.7464 52.6089 28.3648 51.8857C27.9862 51.1593 27.797 50.2884 27.797 49.2727C27.797 48.254 27.9862 47.383 28.3648 46.6598C28.7464 45.9335 29.2635 45.378 29.9159 44.9933C30.5715 44.6085 31.3132 44.4162 32.1411 44.4162C32.969 44.4162 33.7091 44.6085 34.3616 44.9933C35.0171 45.378 35.5342 45.9335 35.9127 46.6598C36.2944 47.383 36.4852 48.254 36.4852 49.2727ZM34.7632 49.2727C34.7632 48.5556 34.6509 47.9509 34.4262 47.4585C34.2046 46.9629 33.8969 46.589 33.5029 46.3366C33.109 46.0812 32.655 45.9535 32.1411 45.9535C31.6271 45.9535 31.1731 46.0812 30.7792 46.3366C30.3853 46.589 30.076 46.9629 29.8513 47.4585C29.6297 47.9509 29.5189 48.5556 29.5189 49.2727C29.5189 49.9898 29.6297 50.5961 29.8513 51.0916C30.076 51.584 30.3853 51.958 30.7792 52.2134C31.1731 52.4658 31.6271 52.592 32.1411 52.592C32.655 52.592 33.109 52.4658 33.5029 52.2134C33.8969 51.958 34.2046 51.584 34.4262 51.0916C34.6509 50.5961 34.7632 49.9898 34.7632 49.2727ZM38.1044 54V44.5455H41.6499C42.3762 44.5455 42.9856 44.6716 43.478 44.924C43.9735 45.1764 44.3474 45.5303 44.5998 45.9858C44.8552 46.4382 44.983 46.966 44.983 47.5692C44.983 48.1755 44.8537 48.7018 44.5952 49.1481C44.3397 49.5913 43.9627 49.9344 43.4641 50.1776C42.9656 50.4176 42.3531 50.5376 41.6268 50.5376H39.1016V49.1158H41.396C41.8207 49.1158 42.1684 49.0573 42.4393 48.9403C42.7101 48.8203 42.9102 48.6464 43.0394 48.4187C43.1718 48.1879 43.2379 47.9047 43.2379 47.5692C43.2379 47.2338 43.1718 46.9476 43.0394 46.7106C42.9071 46.4705 42.7055 46.2889 42.4347 46.1658C42.1638 46.0397 41.8145 45.9766 41.3867 45.9766H39.8171V54H38.1044ZM42.9886 49.7159L45.3292 54H43.418L41.119 49.7159H42.9886ZM48.2722 44.5455V54H46.5595V44.5455H48.2722ZM58.2195 47.7354H56.493C56.4437 47.4523 56.353 47.2015 56.2206 46.983C56.0883 46.7614 55.9236 46.5736 55.7267 46.4197C55.5297 46.2659 55.305 46.1504 55.0526 46.0735C54.8034 45.9935 54.5341 45.9535 54.2448 45.9535C53.7308 45.9535 53.2753 46.0827 52.8783 46.3413C52.4813 46.5967 52.1704 46.9722 51.9458 47.4677C51.7211 47.9601 51.6088 48.5618 51.6088 49.2727C51.6088 49.996 51.7211 50.6054 51.9458 51.1009C52.1735 51.5933 52.4843 51.9657 52.8783 52.218C53.2753 52.4673 53.7293 52.592 54.2401 52.592C54.5233 52.592 54.788 52.555 55.0342 52.4812C55.2835 52.4042 55.5066 52.2919 55.7036 52.1442C55.9036 51.9964 56.0713 51.8149 56.2068 51.5994C56.3453 51.384 56.4407 51.1378 56.493 50.8608L58.2195 50.87C58.1549 51.3194 58.0149 51.741 57.7994 52.1349C57.5871 52.5289 57.3086 52.8767 56.9639 53.1783C56.6192 53.4768 56.216 53.7107 55.7544 53.88C55.2927 54.0462 54.7803 54.1293 54.2171 54.1293C53.3861 54.1293 52.6444 53.9369 51.9919 53.5522C51.3395 53.1675 50.8255 52.612 50.45 51.8857C50.0745 51.1593 49.8868 50.2884 49.8868 49.2727C49.8868 48.254 50.0761 47.383 50.4546 46.6598C50.8332 45.9335 51.3487 45.378 52.0012 44.9933C52.6536 44.6085 53.3923 44.4162 54.2171 44.4162C54.7433 44.4162 55.2327 44.4901 55.6851 44.6378C56.1375 44.7855 56.5407 45.0025 56.8946 45.2887C57.2486 45.5719 57.5394 45.9196 57.7671 46.332C57.998 46.7414 58.1488 47.2092 58.2195 47.7354ZM60.8879 54H59.0597L62.3882 44.5455H64.5026L67.8357 54H66.0075L63.4823 46.4844H63.4085L60.8879 54ZM60.9479 50.293H65.9337V51.6687H60.9479V50.293ZM69.081 44.5455H71.1768L73.9837 51.3963H74.0945L76.9013 44.5455H78.9972V54H77.3537V47.5046H77.266L74.6531 53.9723H73.4251L70.8121 47.4908H70.7244V54H69.081V44.5455ZM80.8622 54V44.5455H84.4815C85.1648 44.5455 85.7326 44.6532 86.185 44.8686C86.6405 45.081 86.9806 45.3718 87.2053 45.7411C87.433 46.1104 87.5469 46.529 87.5469 46.9968C87.5469 47.3815 87.473 47.7108 87.3253 47.9847C87.1776 48.2556 86.979 48.4756 86.7298 48.6449C86.4805 48.8142 86.2019 48.9357 85.8942 49.0096V49.1019C86.2296 49.1204 86.5513 49.2235 86.859 49.4112C87.1699 49.5959 87.4238 49.8575 87.6207 50.196C87.8177 50.5346 87.9162 50.9439 87.9162 51.424C87.9162 51.9134 87.7977 52.3535 87.5607 52.7443C87.3237 53.1321 86.9667 53.4383 86.4897 53.663C86.0127 53.8877 85.4125 54 84.6893 54H80.8622ZM82.5749 52.5689H84.4169C85.0386 52.5689 85.4864 52.4504 85.7603 52.2134C86.0373 51.9734 86.1758 51.6656 86.1758 51.2901C86.1758 51.0101 86.1065 50.7577 85.968 50.533C85.8295 50.3053 85.6326 50.1268 85.3771 49.9975C85.1217 49.8652 84.817 49.799 84.4631 49.799H82.5749V52.5689ZM82.5749 48.5664H84.2692C84.5646 48.5664 84.8308 48.5125 85.0678 48.4048C85.3048 48.294 85.491 48.1386 85.6264 47.9386C85.7649 47.7354 85.8342 47.4954 85.8342 47.2184C85.8342 46.8522 85.7049 46.5505 85.4464 46.3136C85.1909 46.0766 84.8108 45.9581 84.3061 45.9581H82.5749V48.5664ZM91.1189 44.5455V54H89.4062V44.5455H91.1189Z" fill="white"/>
</g>
<defs>
<clipPath id="clip0_1626_2441">
<rect width="93" height="57" fill="white"/>
</clipPath>
</defs>
</svg>
