<svg width="56" height="57" viewBox="0 0 56 57" fill="none" xmlns="http://www.w3.org/2000/svg">
<path fill-rule="evenodd" clip-rule="evenodd" d="M47.7989 48.5284C53.274 43.0672 56.0096 36.4631 56 28.7298C56.0096 20.9965 53.274 14.3918 47.7989 8.93061C42.3377 3.45517 35.7331 0.719619 28.0002 0.729519C20.2669 0.719619 13.6622 3.45548 8.20138 8.93061C2.72597 14.3918 -0.00987339 20.9965 2.67723e-05 28.7298C-0.00987339 36.4631 2.72597 43.0672 8.20138 48.5284C13.6622 54.0035 20.2669 56.7397 28.0002 56.7295C35.7331 56.7397 42.3377 54.0035 47.7989 48.5284Z" fill="black"/>
<path fill-rule="evenodd" clip-rule="evenodd" d="M0.396484 28.7298C0.396484 13.4847 12.7544 1.12646 27.9994 1.12646C43.2444 1.12646 55.6023 13.4844 55.6023 28.7298C55.6023 43.9746 43.2447 56.3332 27.9994 56.3332C12.7544 56.3332 0.396484 43.9746 0.396484 28.7298Z" fill="white"/>
<path fill-rule="evenodd" clip-rule="evenodd" d="M1.90234 28.7299C1.90234 14.3164 13.5864 2.63232 27.9998 2.63232C42.4129 2.63232 54.0972 14.3164 54.0972 28.7299C54.0972 43.1434 42.4126 54.8275 27.9998 54.8275C13.5864 54.8272 1.90234 43.1434 1.90234 28.7299Z" fill="black"/>
<path fill-rule="evenodd" clip-rule="evenodd" d="M12.2422 28.7296C12.2422 20.027 19.2967 12.9722 27.9995 12.9722C36.7024 12.9722 43.7572 20.027 43.7572 28.7296C43.7572 37.4322 36.7024 44.487 27.9995 44.487C19.297 44.487 12.2422 37.4322 12.2422 28.7296Z" fill="white"/>
<path fill-rule="evenodd" clip-rule="evenodd" d="M28.095 14.9102C20.5028 14.9102 14.3477 21.0975 14.3477 28.7299H28.095V14.9102ZM28.2546 42.5918C35.8864 42.5918 42.074 36.4048 42.074 28.7723L42.0734 28.7299H28.167V42.5918H28.2546Z" fill="#33348E"/>
<path fill-rule="evenodd" clip-rule="evenodd" d="M45.0677 10.978L44.0288 9.49485L39.6916 14.97L40.7048 16.4173L44.6361 15.2685L42.1406 18.4679L43.1588 19.9223L49.8689 17.8355L48.8303 16.3523L44.5662 17.7993L47.3431 14.2287L46.5493 13.0945L42.2034 14.4252L45.0677 10.978ZM23.9454 11.7812H25.6763L26.2357 7.92845L27.7891 11.7812H28.4815L30.0881 7.92845L30.5946 11.7812H32.3342L31.3219 5.0874H29.5912L28.1532 8.66509L26.7947 5.0874H25.0814L23.9454 11.7812ZM15.4365 17.4494C16.4924 15.9414 17.147 14.2012 15.9983 13.3965C15.2348 12.8619 14.3518 12.993 13.4237 14.1019C13.6504 13.2671 13.419 12.7468 12.9246 12.4003C11.8774 11.667 10.8106 12.3857 9.78534 13.8503L7.64258 16.9104L13.1257 20.7495L15.4365 17.4494Z" fill="white"/>
<path fill-rule="evenodd" clip-rule="evenodd" d="M12.3576 17.0189L12.5108 16.8005C13.0005 16.1009 13.6775 14.9952 14.3392 15.4584C14.9428 15.881 14.1712 16.9366 13.727 17.5705L13.5358 17.8437L12.3576 17.0189ZM10.2344 15.532L10.3414 15.3788C10.747 14.7997 11.243 14.1537 11.7448 14.5048C12.2101 14.8309 11.8623 15.4667 11.4645 16.035L11.2962 16.2754L10.2344 15.532Z" fill="black"/>
</svg>
