<svg width="417" height="135" viewBox="0 0 417 135" fill="none" xmlns="http://www.w3.org/2000/svg">
<g clip-path="url(#clip0_1693_14)">
<path d="M4.93324 79V67.3693L29.3381 46.0028C31.1676 44.3475 32.7249 42.8338 34.0099 41.4616C35.295 40.0677 36.2751 38.6738 36.9503 37.2798C37.6255 35.8641 37.9631 34.3286 37.9631 32.6733C37.9631 30.822 37.5601 29.2429 36.7543 27.9361C35.9484 26.6075 34.8376 25.5838 33.4219 24.8651C32.0062 24.1463 30.3835 23.7869 28.554 23.7869C26.7027 23.7869 25.08 24.1681 23.6861 24.9304C22.2921 25.6709 21.2031 26.7491 20.419 28.1648C19.6567 29.5805 19.2756 31.3011 19.2756 33.3267H3.95312C3.95312 28.7746 4.9768 24.8433 7.02415 21.5327C9.0715 18.2221 11.9465 15.6738 15.6491 13.8878C19.3736 12.08 23.697 11.1761 28.6193 11.1761C33.6941 11.1761 38.1046 12.0256 41.8509 13.7244C45.5971 15.4233 48.4938 17.7973 50.5412 20.8466C52.6103 23.8741 53.6449 27.3916 53.6449 31.3991C53.6449 33.9474 53.1331 36.474 52.1094 38.9787C51.0857 41.4834 49.2453 44.2495 46.5881 47.277C43.9527 50.3044 40.2064 53.9309 35.3494 58.1562L27.3452 65.5398V65.9645H54.4616V79H4.93324ZM363.068 79V67.3693L387.473 46.0028C389.303 44.3475 390.86 42.8338 392.145 41.4616C393.43 40.0677 394.41 38.6738 395.085 37.2798C395.761 35.8641 396.098 34.3286 396.098 32.6733C396.098 30.822 395.695 29.2429 394.889 27.9361C394.084 26.6075 392.973 25.5838 391.557 24.8651C390.141 24.1463 388.519 23.7869 386.689 23.7869C384.838 23.7869 383.215 24.1681 381.821 24.9304C380.427 25.6709 379.338 26.7491 378.554 28.1648C377.792 29.5805 377.411 31.3011 377.411 33.3267H362.088C362.088 28.7746 363.112 24.8433 365.159 21.5327C367.207 18.2221 370.082 15.6738 373.784 13.8878C377.509 12.08 381.832 11.1761 386.754 11.1761C391.829 11.1761 396.24 12.0256 399.986 13.7244C403.732 15.4233 406.629 17.7973 408.676 20.8466C410.745 23.8741 411.78 27.3916 411.78 31.3991C411.78 33.9474 411.268 36.474 410.245 38.9787C409.221 41.4834 407.38 44.2495 404.723 47.277C402.088 50.3044 398.342 53.9309 393.485 58.1562L385.48 65.5398V65.9645H412.597V79H363.068Z" fill="white"/>
<path d="M66.9519 79V12.0909H113.605V25.2244H83.1238V38.946H111.22V52.1122H83.1238V65.8665H113.605V79H66.9519ZM126.953 12.0909H146.98L163.969 53.517H164.753L181.741 12.0909H201.768V79H186.021V37.9006H185.466L169.392 78.5753H159.33L143.256 37.6719H142.7V79H126.953V12.0909ZM215.075 12.0909H235.102L252.091 53.517H252.875L269.864 12.0909H289.891V79H274.144V37.9006H273.588L257.514 78.5753H247.452L231.378 37.6719H230.823V79H215.075V12.0909ZM303.198 79V12.0909H349.851V25.2244H319.37V38.946H347.466V52.1122H319.37V65.8665H349.851V79H303.198Z" fill="#F03B3B"/>
<path d="M9.08203 128H1.34766L15.4297 88H24.375L38.4766 128H30.7422L20.0586 96.2031H19.7461L9.08203 128ZM9.33594 112.316H30.4297V118.137H9.33594V112.316ZM71.71 88H78.9561V114.133C78.9561 116.997 78.279 119.517 76.9248 121.691C75.5837 123.866 73.6956 125.565 71.2607 126.789C68.8258 128 65.9808 128.605 62.7256 128.605C59.4574 128.605 56.6058 128 54.1709 126.789C51.736 125.565 49.848 123.866 48.5068 121.691C47.1657 119.517 46.4951 116.997 46.4951 114.133V88H53.7412V113.527C53.7412 115.194 54.1058 116.678 54.835 117.98C55.5771 119.283 56.6188 120.305 57.96 121.047C59.3011 121.776 60.8896 122.141 62.7256 122.141C64.5615 122.141 66.1501 121.776 67.4912 121.047C68.8454 120.305 69.887 119.283 70.6162 117.98C71.3454 116.678 71.71 115.194 71.71 113.527V88ZM87.8242 94.0742V88H119.738V94.0742H107.375V128H100.187V94.0742H87.8242ZM162.61 108C162.61 112.31 161.803 116.001 160.188 119.074C158.587 122.134 156.399 124.478 153.626 126.105C150.866 127.733 147.734 128.547 144.231 128.547C140.729 128.547 137.591 127.733 134.817 126.105C132.057 124.465 129.869 122.115 128.255 119.055C126.653 115.982 125.853 112.297 125.853 108C125.853 103.69 126.653 100.005 128.255 96.9453C129.869 93.8724 132.057 91.5221 134.817 89.8945C137.591 88.2669 140.729 87.4531 144.231 87.4531C147.734 87.4531 150.866 88.2669 153.626 89.8945C156.399 91.5221 158.587 93.8724 160.188 96.9453C161.803 100.005 162.61 103.69 162.61 108ZM155.325 108C155.325 104.966 154.85 102.408 153.899 100.324C152.962 98.2279 151.66 96.6458 149.993 95.5781C148.326 94.4974 146.406 93.957 144.231 93.957C142.057 93.957 140.136 94.4974 138.47 95.5781C136.803 96.6458 135.494 98.2279 134.544 100.324C133.606 102.408 133.138 104.966 133.138 108C133.138 111.034 133.606 113.599 134.544 115.695C135.494 117.779 136.803 119.361 138.47 120.441C140.136 121.509 142.057 122.043 144.231 122.043C146.406 122.043 148.326 121.509 149.993 120.441C151.66 119.361 152.962 117.779 153.899 115.695C154.85 113.599 155.325 111.034 155.325 108ZM172.211 128V88H187.211C190.284 88 192.862 88.5339 194.945 89.6016C197.042 90.6693 198.624 92.1667 199.691 94.0937C200.772 96.0078 201.313 98.2409 201.313 100.793C201.313 103.358 200.766 105.585 199.672 107.473C198.591 109.348 196.996 110.799 194.887 111.828C192.777 112.844 190.186 113.352 187.113 113.352H176.43V107.336H186.137C187.934 107.336 189.405 107.089 190.551 106.594C191.697 106.086 192.543 105.35 193.09 104.387C193.65 103.41 193.93 102.212 193.93 100.793C193.93 99.3737 193.65 98.1628 193.09 97.1602C192.53 96.1445 191.677 95.3763 190.531 94.8555C189.385 94.3216 187.908 94.0547 186.098 94.0547H179.457V128H172.211ZM192.875 109.875L202.777 128H194.691L184.965 109.875H192.875ZM217.979 88V128H210.732V88H217.979ZM262.813 101.496H255.509C255.3 100.298 254.916 99.237 254.356 98.3125C253.797 97.375 253.1 96.5807 252.267 95.9297C251.433 95.2786 250.483 94.7904 249.415 94.4648C248.36 94.1263 247.221 93.957 245.997 93.957C243.823 93.957 241.896 94.5039 240.216 95.5977C238.536 96.6784 237.221 98.2669 236.271 100.363C235.32 102.447 234.845 104.992 234.845 108C234.845 111.06 235.32 113.638 236.271 115.734C237.234 117.818 238.549 119.393 240.216 120.461C241.896 121.516 243.816 122.043 245.978 122.043C247.175 122.043 248.295 121.887 249.337 121.574C250.392 121.249 251.336 120.773 252.169 120.148C253.015 119.523 253.725 118.755 254.298 117.844C254.884 116.932 255.287 115.891 255.509 114.719L262.813 114.758C262.54 116.659 261.948 118.443 261.036 120.109C260.138 121.776 258.959 123.247 257.501 124.523C256.043 125.786 254.337 126.776 252.384 127.492C250.431 128.195 248.263 128.547 245.88 128.547C242.364 128.547 239.226 127.733 236.466 126.105C233.705 124.478 231.531 122.128 229.942 119.055C228.354 115.982 227.56 112.297 227.56 108C227.56 103.69 228.36 100.005 229.962 96.9453C231.563 93.8724 233.744 91.5221 236.505 89.8945C239.265 88.2669 242.39 87.4531 245.88 87.4531C248.106 87.4531 250.177 87.7656 252.091 88.3906C254.005 89.0156 255.711 89.9336 257.208 91.1445C258.705 92.3424 259.936 93.8138 260.899 95.5586C261.876 97.2904 262.514 99.2695 262.813 101.496ZM276.853 128H269.118L283.2 88H292.146L306.247 128H298.513L287.829 96.2031H287.517L276.853 128ZM277.106 112.316H298.2V118.137H277.106V112.316ZM314.266 88H323.133L335.008 116.984H335.477L347.352 88H356.219V128H349.266V100.52H348.895L337.84 127.883H332.645L321.59 100.461H321.219V128H314.266V88ZM366.859 128V88H382.172C385.063 88 387.465 88.4557 389.379 89.3672C391.306 90.2656 392.745 91.4961 393.695 93.0586C394.659 94.6211 395.141 96.3919 395.141 98.3711C395.141 99.9987 394.828 101.392 394.203 102.551C393.578 103.697 392.738 104.628 391.684 105.344C390.629 106.06 389.451 106.574 388.148 106.887V107.277C389.568 107.355 390.928 107.792 392.23 108.586C393.546 109.367 394.62 110.474 395.453 111.906C396.286 113.339 396.703 115.07 396.703 117.102C396.703 119.172 396.202 121.034 395.199 122.687C394.197 124.328 392.686 125.624 390.668 126.574C388.65 127.525 386.111 128 383.051 128H366.859ZM374.105 121.945H381.898C384.529 121.945 386.423 121.444 387.582 120.441C388.754 119.426 389.34 118.124 389.34 116.535C389.34 115.35 389.047 114.283 388.461 113.332C387.875 112.368 387.042 111.613 385.961 111.066C384.88 110.507 383.591 110.227 382.094 110.227H374.105V121.945ZM374.105 105.012H381.273C382.523 105.012 383.65 104.784 384.652 104.328C385.655 103.859 386.443 103.202 387.016 102.355C387.602 101.496 387.895 100.48 387.895 99.3086C387.895 97.7591 387.348 96.4831 386.254 95.4805C385.173 94.4779 383.565 93.9766 381.43 93.9766H374.105V105.012ZM413.003 88V128H405.757V88H413.003Z" fill="white"/>
</g>
<defs>
<clipPath id="clip0_1693_14">
<rect width="417" height="135" fill="white"/>
</clipPath>
</defs>
</svg>
