<svg width="67" height="48" viewBox="0 0 67 48" fill="none" xmlns="http://www.w3.org/2000/svg">
<path fill-rule="evenodd" clip-rule="evenodd" d="M9.06015 31.3917V41.3538H6.9217V37.2411H2.1948V41.3538H0V31.3917H2.1948V35.3301H6.9217V31.3917H9.06015ZM64.7706 41.3538H66.9091V31.3917H64.7706V41.3538ZM28.0241 38.6314C28.0241 39.2681 27.9118 39.4417 27.3491 39.4417H23.4662V31.3914H21.3278V41.3535H28.3622C28.3622 41.3535 30.1629 41.2371 30.1629 39.1525V31.3914H28.0245L28.0241 38.6314ZM38.8287 41.3538H41.0238V33.5927C41.0238 31.5073 39.1663 31.3917 39.1663 31.3917H32.132V41.3538H34.3271V33.3027H38.1537C38.7167 33.3027 38.8287 33.4763 38.8287 34.1138V41.3538ZM20.4837 31.3917H17.7822L15.1942 35.6193L12.6053 31.3917H9.96053L14.1807 37.8203V41.3538H16.3195V37.7623L20.4837 31.3917ZM42.9369 41.3538H49.8582C51.7157 41.3538 51.8844 39.3841 51.8844 39.3841V33.3611C51.8844 33.3611 51.7157 31.3921 49.8582 31.3921H42.9369V41.3538ZM49.6892 38.6314C49.6892 38.6314 49.6892 39.4417 49.0142 39.4417H45.0746V33.3024H49.0142C49.6892 33.3024 49.6892 34.1135 49.6892 34.1135V38.6314ZM62.9139 31.3917V41.3538H60.7187V38.4578H55.8795V41.3538H53.7411V33.9403C53.7411 31.2754 56.1049 31.3917 56.1049 31.3917H62.9139ZM60.7187 36.6044V33.3027H56.6113C56.6113 33.3027 55.8795 33.3027 55.8795 34.2294V36.6044H60.7187ZM58.2993 12.9158C58.2993 19.9818 47.1575 25.7736 33.4827 25.7736C19.752 25.7736 8.66611 19.9814 8.66611 12.9158C8.66611 5.79176 19.752 1.9881e-08 33.4827 1.9881e-08C47.1575 -0.000391819 58.2993 5.79137 58.2993 12.9158ZM32.301 11.1204C34.4394 10.7148 36.5215 9.96171 38.1537 9.32458C43.4436 7.41319 45.9194 5.4442 46.4261 4.98066C47.1011 4.34353 46.5948 4.11195 45.9754 3.88038C42.3742 2.7797 36.9156 1.96899 33.4268 2.14297C30.8946 2.20057 29.4875 5.03865 28.9249 6.25492C26.2797 11.9887 31.0066 11.4096 32.301 11.1204ZM16.0942 19.2287C16.2065 18.9971 20.3711 8.97702 25.2666 3.53282C25.8856 2.95368 25.2103 2.83809 24.4226 3.01167C16.3195 4.6331 10.6919 8.45587 10.6919 12.8578C10.6919 15.2903 12.3799 17.5493 15.1938 19.3447C15.5878 19.5763 15.9815 19.4027 16.0942 19.2287ZM34.6081 14.6532C32.4696 15.0587 30.3875 15.8119 28.7554 16.449C23.4655 18.36 20.9897 20.3874 20.4834 20.8505C19.808 21.4296 20.3143 21.7192 20.9334 21.8932C24.5349 22.9939 29.9935 23.8046 33.4823 23.6886C36.0144 23.573 37.4215 20.7349 38.0402 19.5183C40.6298 13.7845 35.9029 14.4216 34.6081 14.6532ZM56.2172 12.9158C56.2172 10.4832 54.5851 8.28229 51.7157 6.48689C51.3217 6.19732 50.984 6.37129 50.8153 6.60248C50.7023 6.77606 46.5384 16.7962 41.6425 22.2404C41.0794 22.8775 41.6988 22.9935 42.4865 22.8199C50.5899 21.1401 56.2172 17.3173 56.2172 12.9158Z" fill="#3165AA"/>
<path fill-rule="evenodd" clip-rule="evenodd" d="M0.0546875 43.1727H0.915921V44.6915H2.4767V43.1727H3.33793V47.0241H2.4767V45.3963H0.915921V47.0241H0.0546875V43.1727ZM5.38341 47.4031C5.16819 47.8376 4.95261 48.0001 4.41438 48.0001H3.93005V47.3495C4.09138 47.3495 4.25306 47.4031 4.36049 47.4031C4.6296 47.3495 4.73739 47.0776 4.6296 46.8612L3.66058 44.2574H4.46792L5.11357 46.1559L5.75958 44.2574H6.51302L5.38341 47.4031ZM9.42046 47.0241H8.66702V46.6443C8.4518 46.9698 8.12879 47.1323 7.80579 47.1323C6.99808 47.1323 6.78287 46.6443 6.78287 45.939V44.2577H7.5902V45.8308C7.5902 46.2645 7.69799 46.4814 8.0749 46.4814C8.4518 46.4814 8.66702 46.2642 8.66702 45.7218V44.2577H9.42046V47.0241ZM10.0126 44.2577H10.7121V44.6375H10.766C10.9273 44.312 11.3042 44.2031 11.6273 44.2031C12.4346 44.2031 12.6502 44.6375 12.6502 45.342V47.0241H11.8428V45.451C11.8428 45.0166 11.7354 44.8004 11.3581 44.8004C10.9277 44.8004 10.7664 45.0169 10.7664 45.5593V47.0241H10.0129L10.0126 44.2577ZM15.18 45.6136C15.18 46.1016 15.0722 46.5353 14.5343 46.5353C14.0496 46.5353 13.8883 46.1016 13.8883 45.6136C13.8883 45.1799 14.05 44.7458 14.5343 44.7458C15.0187 44.7458 15.18 45.1802 15.18 45.6136ZM15.2335 47.0241H15.9334V43.1727H15.18V44.5832C14.9648 44.3124 14.6414 44.2034 14.3187 44.2034C13.5114 44.2034 13.081 44.854 13.081 45.6139C13.081 46.3728 13.5118 47.1327 14.3726 47.1327C14.6957 47.1327 15.0187 46.9701 15.18 46.6982H15.2335V47.0241ZM18.248 45.6682C18.1406 45.7765 17.8715 45.7765 17.6024 45.8308C17.3871 45.8844 17.1716 45.939 17.1716 46.2645C17.1716 46.5353 17.3868 46.59 17.6559 46.59C18.248 46.59 18.248 46.102 18.248 45.9394V45.6682ZM16.4716 45.1255C16.5255 44.366 17.1712 44.2031 17.8172 44.2031C18.3554 44.2031 19.0553 44.3121 19.0553 44.9626V46.4267C19.0553 46.6439 19.0553 46.9147 19.1089 47.0237H18.3554C18.3019 46.9694 18.3019 46.8612 18.3019 46.7522C18.0328 47.0237 17.7098 47.132 17.3329 47.132C16.8486 47.132 16.4178 46.8612 16.4178 46.2641C16.4178 45.6679 16.9021 45.5046 17.3329 45.4507C17.8176 45.3417 18.248 45.3963 18.248 45.0709C18.248 44.7454 18.0328 44.6911 17.7637 44.6911C17.4946 44.6911 17.2794 44.8001 17.2794 45.1255H16.4716ZM19.6478 44.2577H20.4013V47.0241H19.6478V44.2577ZM19.6478 43.1727H20.4013V43.824H19.6478V43.1727ZM22.6081 43.1727H23.7919L24.7074 45.8308L25.5683 43.1727H26.7526V47.0241H25.9991V44.312H25.9452L25.0304 47.0241H24.3841L23.4154 44.312V47.0241H22.6081V43.1727ZM28.798 44.2034C29.6593 44.2034 30.2514 44.7461 30.2514 45.6682C30.2514 46.5353 29.6593 47.1323 28.798 47.1323C27.9368 47.1323 27.3447 46.5353 27.3447 45.6682C27.3447 44.7458 27.9368 44.2034 28.798 44.2034ZM28.798 46.5353C29.3362 46.5353 29.4976 46.1016 29.4976 45.6682C29.4976 45.1802 29.3359 44.7458 28.798 44.7458C28.2594 44.7458 28.0981 45.1802 28.0981 45.6682C28.0985 46.1016 28.2598 46.5353 28.798 46.5353ZM31.7047 44.2577H32.2969V44.7458H31.7047V46.1563C31.7047 46.3728 31.8125 46.4817 32.0277 46.4817C32.1352 46.4817 32.1891 46.4817 32.2969 46.4274V47.0244C32.1352 47.078 31.9738 47.078 31.8122 47.078C31.3814 47.078 30.9509 46.9698 30.9509 46.4274V44.7461H30.4666V44.2581H30.9509V43.4446H31.7044L31.7047 44.2577ZM33.3198 45.6682C33.3198 45.1802 33.4811 44.7458 34.0197 44.7458C34.5575 44.7458 34.7189 45.1802 34.7189 45.6682C34.7189 46.102 34.5575 46.5353 34.0197 46.5353C33.4811 46.5353 33.3198 46.1016 33.3198 45.6682ZM32.566 45.6682C32.566 46.5353 33.1046 47.1323 34.0197 47.1323C34.8802 47.1323 35.4727 46.5353 35.4727 45.6682C35.4727 44.7458 34.8802 44.2034 34.0197 44.2034C33.1042 44.2034 32.566 44.7458 32.566 45.6682ZM35.957 44.2577H36.7108V44.7458C36.8182 44.4203 37.1951 44.2031 37.5713 44.2031H37.7326V44.9083H37.4639C36.9253 44.9083 36.7108 45.2881 36.7108 45.7761V47.0237H35.957V44.2577ZM42.2551 44.475C42.147 44.0952 41.8239 43.8244 41.3939 43.8244C40.6401 43.8244 40.3171 44.475 40.3171 45.1259C40.3171 45.7769 40.6401 46.4274 41.3939 46.4274C41.8782 46.4274 42.2012 46.0477 42.2551 45.5596H43.0624C43.0086 46.5357 42.3086 47.1327 41.3939 47.1327C40.2096 47.1327 39.5097 46.2102 39.5097 45.1259C39.5097 43.9869 40.2096 43.1191 41.3939 43.1191C42.2551 43.1191 42.9543 43.6072 43.0624 44.475H42.2551ZM44.2467 45.6682C44.2467 45.1802 44.408 44.7458 44.9466 44.7458C45.4845 44.7458 45.6458 45.1802 45.6458 45.6682C45.6458 46.102 45.4845 46.5353 44.9466 46.5353C44.408 46.5353 44.2467 46.1016 44.2467 45.6682ZM43.4929 45.6682C43.4929 46.5353 44.0854 47.1323 44.9466 47.1323C45.8071 47.1323 46.3996 46.5353 46.3996 45.6682C46.3996 44.7458 45.8071 44.2034 44.9466 44.2034C44.085 44.2034 43.4929 44.7458 43.4929 45.6682ZM46.8839 44.2577H47.637V44.6375C47.8526 44.366 48.1221 44.2031 48.4982 44.2031C48.8751 44.2031 49.1446 44.312 49.3063 44.6375C49.4676 44.4203 49.7906 44.2031 50.1668 44.2031C50.7593 44.2031 51.1897 44.4746 51.1897 45.1799V47.0237H50.4366V45.4507C50.4366 45.0709 50.3827 44.8001 49.9523 44.8001C49.5212 44.8001 49.4137 45.1255 49.4137 45.5046V47.0241H48.6599V45.451C48.6599 45.1255 48.7138 44.8004 48.1756 44.8004C48.0682 44.8004 47.6913 44.854 47.6913 45.3967V47.0244H46.8839V44.2577ZM53.1813 46.5353C52.697 46.5353 52.5356 46.1016 52.5356 45.6682C52.5356 45.1802 52.697 44.7458 53.1813 44.7458C53.6664 44.7458 53.8812 45.2338 53.8812 45.6682C53.8812 46.1016 53.7199 46.5353 53.1813 46.5353ZM51.7822 48.0001H52.5353V46.6979H52.5892C52.7505 46.9694 53.0735 47.1323 53.3965 47.1323C54.2039 47.1323 54.6347 46.4271 54.6347 45.6682C54.6347 44.9087 54.2578 44.2034 53.343 44.2034C53.0193 44.2034 52.6966 44.3124 52.5349 44.5832V44.2577H51.7818V48.0001H51.7822ZM56.8422 45.6682C56.734 45.7765 56.4653 45.7765 56.1965 45.8308C55.9809 45.8844 55.7654 45.939 55.7654 46.2645C55.7654 46.5353 55.9809 46.59 56.1965 46.59C56.8422 46.59 56.8422 46.102 56.8422 45.9394V45.6682ZM55.0654 45.1255C55.1193 44.366 55.7654 44.2031 56.3578 44.2031C56.9496 44.2031 57.5953 44.3121 57.5953 44.9626V46.4267C57.5953 46.6439 57.6492 46.9147 57.7034 47.0237H56.9496C56.8957 46.9694 56.8957 46.8612 56.8957 46.7522C56.627 47.0237 56.3039 47.132 55.927 47.132C55.3885 47.132 54.9584 46.8612 54.9584 46.2641C54.9584 45.6679 55.4427 45.5046 55.927 45.4507C56.4114 45.3417 56.8425 45.3963 56.8425 45.0709C56.8425 44.7454 56.627 44.6911 56.3582 44.6911C56.0352 44.6911 55.8739 44.8001 55.8196 45.1255H55.0654ZM58.1877 44.2577H58.9408V44.6375C59.1564 44.312 59.4794 44.2031 59.8021 44.2031C60.6094 44.2031 60.825 44.6375 60.825 45.342V47.0241H60.0712V45.451C60.0712 45.0166 59.9098 44.8004 59.5868 44.8004C59.1564 44.8004 58.9951 45.0169 58.9951 45.5593V47.0241H58.1877V44.2577ZM62.8165 47.4031C62.6552 47.8376 62.3861 48.0001 61.8479 48.0001H61.3636V47.3495C61.5249 47.3495 61.6323 47.4031 61.794 47.4031C61.8519 47.3935 61.9068 47.3703 61.9541 47.3352C62.0013 47.3002 62.0397 47.2543 62.066 47.2014C62.0923 47.1485 62.1058 47.0901 62.1053 47.031C62.1049 46.9718 62.0905 46.9136 62.0635 46.8612L61.0941 44.2574H61.9022L62.5478 46.1559L63.1935 44.2574H63.9465L62.8165 47.4031Z" fill="#0C0E0F"/>
</svg>
